<?xml version="1.0" encoding="UTF-8"?>
<svg id="Calque_1" data-name="Calque 1" xmlns="http://www.w3.org/2000/svg" viewBox="0 0 50 50">
  <defs>
    <style>
      .cls-1 {
        fill: #c9b292;
      }

      .cls-2 {
        fill: #093d4e;
      }
    </style>
  </defs>
  <path class="cls-2" d="M32.57,40.88h-15.14c-.17,0-.32-.14-.32-.32s.14-.32.32-.32h15.14c.17,0,.32.14.32.32s-.14.32-.32.32Z"/>
  <path class="cls-2" d="M42.68,9.12H7.33c-.87,0-1.59.71-1.59,1.58v24.2c0,.87.72,1.58,1.59,1.58h35.35c.87,0,1.58-.71,1.58-1.58V10.7c0-.87-.71-1.58-1.58-1.58ZM43.63,34.9c0,.52-.42.96-.95.96H7.33c-.53,0-.96-.43-.96-.96V10.7c0-.52.42-.95.96-.95h35.35c.52,0,.95.42.95.95v24.2Z"/>
  <path class="cls-1" d="M29.45,23.55c-.17,2.87-2.55,5.15-5.47,5.15s-5.47-2.45-5.47-5.47,2.28-5.29,5.15-5.46v5.78h5.78Z"/>
  <path class="cls-1" d="M31.48,20.86h-5.15v-5.15c2.77.17,4.99,2.39,5.15,5.15Z"/>
  <path class="cls-2" d="M28.97,40.88c-.12,0-.24-.07-.29-.19l-1.97-4.4c-.07-.16,0-.35.16-.42.16-.07.35,0,.42.16l1.97,4.4c.07.16,0,.35-.16.42-.04.02-.09.03-.13.03Z"/>
  <path class="cls-2" d="M21.03,40.88s-.09,0-.13-.03c-.16-.07-.23-.26-.16-.42l1.97-4.4c.07-.16.26-.23.42-.16.16.07.23.26.16.42l-1.97,4.4c-.05.12-.17.19-.29.19Z"/>
  <path class="cls-2" d="M44.26,32.7c0,.17-.14.31-.31.31H6.06c-.17,0-.32-.14-.32-.31s.15-.32.32-.32h37.88c.17,0,.31.15.31.32Z"/>
  <path class="cls-2" d="M25.01,33.39c-.6,0-1.07.48-1.07,1.07s.48,1.07,1.07,1.07,1.07-.49,1.07-1.07-.49-1.07-1.07-1.07ZM25.01,34.91c-.25,0-.45-.19-.45-.44s.2-.45.45-.45.44.2.44.45-.2.44-.44.44Z"/>
  <path class="cls-2" d="M44.26,11.86c0,.17-.15.32-.32.32H6.06c-.17,0-.32-.15-.32-.32,0-.17.15-.31.32-.31h37.87c.17,0,.32.15.32.31Z"/>
</svg>