<?xml version="1.0" encoding="UTF-8"?>
<svg id="Calque_1" data-name="Calque 1" xmlns="http://www.w3.org/2000/svg" viewBox="0 0 50 50">
  <defs>
    <style>
      .cls-1 {
        fill: #093d4e;
      }
    </style>
  </defs>
  <g>
    <path class="cls-1" d="M32.79,15.55V6.77H5.48v36.47h27.32v-8.44c-.2.02-.4.03-.62.03h-.09v7.71H6.17V7.47h25.91s0,8.05,0,8.05c.24,0,.47,0,.71.03ZM32.13,16.22h-.05v17.9c.23,0,.47,0,.71-.03v-17.85c-.22-.02-.44-.03-.66-.03Z"/>
    <rect class="cls-1" x="10.12" y="30.24" width="9.26" height=".7"/>
    <rect class="cls-1" x="10.12" y="26.51" width="8.33" height=".7"/>
    <rect class="cls-1" x="10.12" y="34" width="11.26" height=".7"/>
    <rect class="cls-1" x="10.12" y="37.76" width="14.92" height=".7"/>
    <path class="cls-1" d="M14.83,11.46c-2.78,0-5.05,2.27-5.05,5.05s2.27,5.05,5.05,5.05,5.05-2.27,5.05-5.05-2.27-5.05-5.05-5.05ZM18.08,19.39h0c-.17.19-.33.36-.52.51-.74.61-1.69.96-2.72.96s-1.97-.36-2.72-.96h0c-.19-.17-.36-.33-.52-.51-.68-.76-1.09-1.76-1.09-2.88,0-2.4,1.95-4.34,4.34-4.34s4.34,1.95,4.34,4.34c0,1.11-.41,2.11-1.09,2.88Z"/>
    <path class="cls-1" d="M14.83,13.52c-.99,0-1.81.81-1.81,1.8s.82,1.81,1.81,1.81,1.81-.81,1.81-1.81-.82-1.8-1.81-1.8ZM14.83,16.42c-.61,0-1.1-.5-1.1-1.1s.5-1.1,1.1-1.1,1.1.5,1.1,1.1-.5,1.1-1.1,1.1Z"/>
    <path class="cls-1" d="M11.98,20.13l-.64-.29c.61-1.37,1.98-2.26,3.49-2.26s2.87.89,3.49,2.26l-.64.29c-.5-1.12-1.62-1.84-2.84-1.84s-2.35.72-2.85,1.84Z"/>
  </g>
  <g>
    <path class="cls-1" d="M39.56,20.16c-1.34-1.98-3.37-3.33-5.71-3.78-.35-.06-.71-.12-1.06-.14-.22-.02-.44-.03-.66-.03h-.05c-1.75,0-3.45.53-4.94,1.54-1.98,1.33-3.33,3.36-3.78,5.71-.45,2.34.04,4.72,1.38,6.71,1.33,1.98,3.36,3.32,5.71,3.78.54.1,1.08.16,1.63.17.23,0,.47,0,.71-.03,1.54-.1,3.04-.62,4.37-1.52,1.97-1.34,3.32-3.37,3.78-5.71.45-2.35-.04-4.73-1.38-6.71ZM25.76,23.93c-.33,1.71.03,3.44,1,4.89l-.59.39c-1.07-1.6-1.47-3.53-1.1-5.42.37-1.89,1.44-3.53,3.04-4.61l.4.59c-1.44.97-2.42,2.45-2.75,4.16Z"/>
    <path class="cls-1" d="M43.87,42.26c-.26.17-.55.26-.84.26-.48,0-.96-.24-1.25-.66l-5.42-8.02c.41-.19.81-.42,1.19-.68.45-.3.87-.64,1.26-1.02l5.45,8.04c.47.69.28,1.62-.39,2.09Z"/>
  </g>
</svg>