<?xml version="1.0" encoding="UTF-8"?>
<svg id="Calque_1" data-name="Calque 1" xmlns="http://www.w3.org/2000/svg" viewBox="0 0 50 50">
  <defs>
    <style>
      .cls-1 {
        fill: #c9b292;
      }

      .cls-2 {
        fill: #093d4e;
      }
    </style>
  </defs>
  <path class="cls-2" d="M32.47,40.69h-14.95c-.18,0-.32-.14-.32-.32s.14-.32.32-.32h14.95c.18,0,.32.14.32.32s-.14.32-.32.32Z"/>
  <path class="cls-2" d="M42.16,9.31H7.85c-1.03,0-1.86.84-1.86,1.86v23.3c0,1.03.84,1.86,1.86,1.86h34.31c1.03,0,1.86-.84,1.86-1.86V11.18c0-1.03-.84-1.86-1.86-1.86ZM43.38,34.47c0,.68-.55,1.22-1.22,1.22H7.85c-.67,0-1.22-.54-1.22-1.22V11.18c0-.67.55-1.22,1.22-1.22h34.31c.67,0,1.22.55,1.22,1.22v23.3Z"/>
  <path class="cls-2" d="M28.91,40.69c-.12,0-.24-.07-.29-.19l-1.95-4.34c-.07-.16,0-.35.16-.43.16-.07.35,0,.43.16l1.95,4.34c.07.16,0,.35-.16.43-.04.02-.09.03-.13.03Z"/>
  <path class="cls-2" d="M21.08,40.69s-.09,0-.13-.03c-.16-.07-.23-.26-.16-.43l1.95-4.34c.07-.16.26-.23.43-.16.16.07.23.26.16.43l-1.95,4.34c-.05.12-.17.19-.29.19Z"/>
  <path class="cls-2" d="M43.7,32.92H6.3c-.18,0-.32-.14-.32-.32s.14-.32.32-.32h37.4c.18,0,.32.14.32.32s-.14.32-.32.32Z"/>
  <path class="cls-2" d="M25.01,33.27c-.6,0-1.07.48-1.07,1.07s.48,1.07,1.07,1.07,1.07-.48,1.07-1.07-.48-1.07-1.07-1.07ZM25.01,34.77c-.24,0-.43-.19-.43-.42s.19-.43.43-.43.42.19.42.43-.19.42-.42.42Z"/>
  <rect class="cls-2" x="10.14" y="16.38" width="15.27" height=".64"/>
  <rect class="cls-2" x="10.14" y="18.36" width="15.27" height=".64"/>
  <rect class="cls-2" x="10.14" y="25.1" width="15.27" height=".64"/>
  <rect class="cls-2" x="10.14" y="27.07" width="15.27" height=".64"/>
  <path class="cls-1" d="M30.62,15.13c-1.51,0-2.73,1.22-2.73,2.73s1.22,2.74,2.73,2.74,2.73-1.22,2.73-2.74-1.22-2.73-2.73-2.73ZM30.03,19.24l-1-1.09.47-.44.56.62,1.7-1.62.44.47-2.17,2.07Z"/>
  <path class="cls-2" d="M30.62,23.09c-1.68,0-3.05,1.37-3.05,3.05s1.37,3.05,3.05,3.05,3.05-1.37,3.05-3.05-1.37-3.05-3.05-3.05ZM30.62,28.55c-1.32,0-2.41-1.07-2.41-2.41s1.08-2.41,2.41-2.41,2.41,1.08,2.41,2.41-1.07,2.41-2.41,2.41Z"/>
  <path class="cls-2" d="M37.74,14.81c-1.68,0-3.05,1.37-3.05,3.05s1.37,3.06,3.05,3.06,3.05-1.37,3.05-3.06-1.37-3.05-3.05-3.05ZM37.74,20.27c-1.32,0-2.41-1.08-2.41-2.42s1.08-2.41,2.41-2.41,2.41,1.08,2.41,2.41-1.07,2.42-2.41,2.42Z"/>
  <path class="cls-1" d="M37.74,23.41c-1.51,0-2.73,1.22-2.73,2.73s1.22,2.73,2.73,2.73,2.73-1.22,2.73-2.73-1.22-2.73-2.73-2.73ZM39.35,27.33l-.46.45-1.15-1.17-1.15,1.17-.46-.45,1.16-1.18-1.16-1.19.46-.45,1.15,1.18,1.15-1.18.46.45-1.16,1.19,1.16,1.18Z"/>
  <rect class="cls-2" x="6.3" y="11.78" width="37.39" height=".64"/>
</svg>