<?xml version="1.0" encoding="UTF-8"?>
<svg id="Calque_1" data-name="Calque 1" xmlns="http://www.w3.org/2000/svg" viewBox="0 0 50 50">
  <defs>
    <style>
      .cls-1 {
        fill: #093d4e;
      }
    </style>
  </defs>
  <g>
    <path class="cls-1" d="M36.79,35.76H10.26c-.7,0-1.27-.57-1.27-1.27v-17.81c0-.7.57-1.27,1.27-1.27h18.2l-.92.64H10.26c-.35,0-.63.29-.63.64v17.81c0,.35.28.63.63.63h26.54c.35,0,.64-.28.64-.63v-8.91l.64-.92v9.82c0,.7-.57,1.27-1.27,1.27Z"/>
    <path class="cls-1" d="M6.18,37.32v2.04c0,.7.57,1.27,1.28,1.27h32.15c.7,0,1.27-.57,1.27-1.27v-2.04H6.18ZM40.24,39.36c0,.35-.28.63-.63.63H7.45c-.35,0-.63-.28-.63-.63v-1.41h33.42v1.41Z"/>
    <polygon class="cls-1" points="35.91 33.43 11.14 33.43 11.14 17.74 27.33 17.74 27.33 18.38 11.78 18.38 11.78 32.79 35.28 32.79 35.28 25.88 35.91 25.88 35.91 33.43"/>
  </g>
  <path class="cls-1" d="M34.29,17.34c.03.07.04.16.04.24s0,.17-.04.24c-.05.21-.17.4-.35.53-.17.13-.38.2-.6.2-.53,0-.97-.44-.97-.97s.44-.97.97-.97c.22,0,.43.07.6.2.17.13.3.31.35.53Z"/>
  <path class="cls-1" d="M36.77,20.48c0-.09,0-.17.04-.26.06-.21.18-.4.36-.52.17-.12.36-.19.58-.19.54,0,.97.43.97.97s-.43.97-.97.97-.97-.43-.97-.97Z"/>
  <path class="cls-1" d="M36.81,14.93c-.03-.08-.04-.17-.04-.26,0-.54.43-.98.97-.98s.97.44.97.98-.43.97-.97.97c-.22,0-.41-.07-.58-.19-.17-.13-.3-.31-.36-.52Z"/>
  <path class="cls-1" d="M36.52,9.43c-4.09-.47-7.83,2.13-8.87,5.98-.05.11-.07.23-.1.35-.03.09-.05.19-.05.28-.06.21-.08.42-.11.63-.05.36-.06.72-.06,1.07,0,.05,0,.1,0,.15.05,1.86.73,3.58,1.86,4.96l-1.04,3.32,3.03-1.55c1.01.63,2.17,1.06,3.44,1.2.96.11,1.92.06,2.81-.16.11-.03.22-.06.33-.08.1-.03.2-.06.3-.09,2.99-.95,5.31-3.58,5.7-6.91.52-4.53-2.72-8.62-7.25-9.15ZM34.97,17.58c0,.21-.04.41-.12.6l1.77,1.16c.29-.29.69-.47,1.13-.47.89,0,1.62.73,1.62,1.62s-.73,1.61-1.62,1.61-1.61-.72-1.61-1.61c0-.22.05-.43.13-.62l-1.77-1.16c-.29.29-.7.48-1.15.48-.88,0-1.61-.72-1.61-1.61s.73-1.62,1.61-1.62c.45,0,.85.18,1.15.49l1.77-1.16c-.08-.19-.13-.39-.13-.62,0-.89.72-1.62,1.61-1.62s1.62.73,1.62,1.62-.73,1.61-1.62,1.61c-.45,0-.85-.18-1.14-.47l-1.76,1.17c.08.18.12.39.12.6Z"/>
  <g>
    <path class="cls-1" d="M33.93,17.58l.37.24c-.05.21-.17.4-.35.53l-.76-.51.17-.27.17-.27.4.27Z"/>
    <path class="cls-1" d="M37.96,20.21l-.35.53-.8-.52c.06-.21.18-.4.36-.52l.79.51Z"/>
    <path class="cls-1" d="M33.94,16.81c.17.13.3.31.35.53l-.37.24-.4.27-.17-.27-.17-.27.76-.51Z"/>
    <path class="cls-1" d="M37.96,14.93l-.79.52c-.17-.13-.3-.31-.36-.52l.8-.52.35.52Z"/>
    <path class="cls-1" d="M34.33,17.58c0,.08,0,.17-.04.24-.05.21-.17.4-.35.53-.17.13-.38.2-.6.2-.53,0-.97-.44-.97-.97s.44-.97.97-.97c.22,0,.43.07.6.2.17.13.3.31.35.53.03.07.04.16.04.24Z"/>
    <path class="cls-1" d="M38.72,14.67c0,.53-.43.97-.97.97-.22,0-.41-.07-.58-.19-.17-.13-.3-.31-.36-.52-.03-.08-.04-.17-.04-.26,0-.54.43-.98.97-.98s.97.44.97.98Z"/>
    <path class="cls-1" d="M38.72,20.48c0,.54-.43.97-.97.97s-.97-.43-.97-.97c0-.09,0-.17.04-.26.06-.21.18-.4.36-.52.17-.12.36-.19.58-.19.54,0,.97.43.97.97Z"/>
  </g>
</svg>