<?xml version="1.0" encoding="UTF-8"?>
<svg id="Calque_1" data-name="Calque 1" xmlns="http://www.w3.org/2000/svg" viewBox="0 0 50 50">
  <defs>
    <style>
      .cls-1 {
        fill: #093d4e;
      }
    </style>
  </defs>
  <path class="cls-1" d="M11.28,17.15l2.53,2.53c.18.18.48.18.66,0l2.49-2.49-5.68-.04Z"/>
  <path class="cls-1" d="M13.24,19.11l-.53,7.41c0,.06.01.13.05.18l1.17,1.59c.1.13.29.15.41.02l1.51-1.61c.05-.06.08-.14.07-.21l-.87-7.38h-1.81Z"/>
  <path class="cls-1" d="M9.66,42.28c-.16,0-.29-.13-.29-.28l-.17-19.28c0-.16.13-.29.28-.29h0c.16,0,.29.13.29.28l.17,19.28c0,.16-.13.29-.28.29h0Z"/>
  <path class="cls-1" d="M14.27,42.28c-.16,0-.29-.13-.29-.29v-11.46c0-.16.13-.29.29-.29s.29.13.29.29v11.46c0,.16-.13.29-.29.29Z"/>
  <path class="cls-1" d="M29.59,25.35c-.06-.13-.14-.26-.23-.39-.07-.1-.15-.19-.22-.28-.41-.47-1.01-.73-1.64-.73h-1.78c-.24,0-.47-.02-.72-.06-.44-.07-.83-.35-1.06-.73-.21-.34-.41-.7-.62-1.07-.32-.58-.62-1.19-.89-1.78-.21-.57-.62-1.41-1.41-2.17-.35-.34-.74-.62-1.17-.87-.45-.25-.96-.39-1.5-.39h-8.28c-2.09,0-3.8,1.71-3.8,3.8v8.52c0,.46.17.9.48,1.22l.1.1c.32.29.75.46,1.2.46h1.51c.13,0,.19-.06.28-.16v-.05s0-.06,0-.08c0-.02,0-.02-.02-.03v-.03s0-.02,0-.02v-.04c-.05-.1-.15-.17-.27-.17h-1.51c-.31,0-.6-.11-.82-.31l-.19.21.12-.28c-.2-.22-.31-.51-.31-.84v-8.52c0-1.78,1.44-3.23,3.22-3.23h8.28c.43,0,.85.11,1.21.32.39.21.74.48,1.06.78.71.68,1.07,1.43,1.27,1.97.28.63.6,1.25.92,1.85.2.39.41.75.62,1.09.32.53.85.9,1.46,1.01.27.05.54.06.81.07h1.78c.47,0,.91.19,1.22.54.06.06.12.14.17.22.07.1.14.21.18.31.17.33.17.72-.03,1.07-.06.1-.13.2-.22.28-.22.2-.51.31-.83.31h-4.99c-.32,0-.62-.15-.82-.39-.14-.16-.24-.32-.32-.45l-2.13-3.95c-.11-.2-.35-.3-.56-.23-.2.06-.33.24-.33.48l-.17,19.28c0,.16.12.28.28.28h0c.16,0,.28-.12.28-.28l.17-18.92,1.96,3.62c.09.17.22.35.37.53.31.39.77.61,1.27.61h4.99c.46,0,.89-.17,1.22-.47.13-.12.24-.26.36-.47.25-.47.26-1.05,0-1.54Z"/>
  <path class="cls-1" d="M14.07,7.72c-2.32,0-4.21,1.89-4.21,4.21s1.88,4.21,4.21,4.21,4.21-1.88,4.21-4.21-1.88-4.21-4.21-4.21ZM14.07,15.56c-2,0-3.64-1.64-3.64-3.64s1.63-3.63,3.64-3.63,3.64,1.63,3.64,3.63-1.63,3.64-3.64,3.64Z"/>
  <path class="cls-1" d="M42.89,28.51h-12.52c-.16,0-.29-.13-.29-.29s.13-.29.29-.29h12.52c.14,0,.25-.11.25-.25V9.24c0-.14-.11-.25-.25-.25h-20.4c-.14,0-.25.11-.25.25v7.79c0,.16-.13.29-.29.29s-.29-.13-.29-.29v-7.79c0-.45.37-.82.82-.82h20.4c.45,0,.82.37.82.82v18.45c0,.45-.37.82-.82.82Z"/>
  <path class="cls-1" d="M39.71,13.79h-13.8c-.16,0-.29-.13-.29-.29s.13-.29.29-.29h13.8c.16,0,.29.13.29.29s-.13.29-.29.29Z"/>
  <path class="cls-1" d="M39.71,17.68h-13.8c-.16,0-.29-.13-.29-.29s.13-.29.29-.29h13.8c.16,0,.29.13.29.29s-.13.29-.29.29Z"/>
  <path class="cls-1" d="M39.71,21.57h-12.77c-.16,0-.29-.13-.29-.29s.13-.29.29-.29h12.77c.16,0,.29.13.29.29s-.13.29-.29.29Z"/>
  <path class="cls-1" d="M32.23,40.04c-.16,0-.29-.13-.29-.29v-11.53c0-.16.13-.29.29-.29s.29.13.29.29v11.53c0,.16-.13.29-.29.29Z"/>
  <path class="cls-1" d="M35.72,40.04h-6.97c-.16,0-.29-.13-.29-.29s.13-.29.29-.29h6.97c.16,0,.29.13.29.29s-.13.29-.29.29Z"/>
</svg>