<?xml version="1.0" encoding="UTF-8"?>
<svg id="Calque_1" data-name="Calque 1" xmlns="http://www.w3.org/2000/svg" viewBox="0 0 50 50">
  <defs>
    <style>
      .cls-1 {
        fill: #093d4e;
      }
    </style>
  </defs>
  <path class="cls-1" d="M37.96,14.45c-1.45,0-2.64,1.19-2.64,2.64s1.19,2.65,2.64,2.65,2.65-1.18,2.65-2.65-1.19-2.64-2.65-2.64ZM37.96,19.09c-1.1,0-2-.9-2-2s.9-1.99,2-1.99,2,.89,2,1.99-.9,2-2,2Z"/>
  <path class="cls-1" d="M43.05,25.06c-.18,0-.32-.14-.32-.32,0-1.78-.96-3.38-2.53-4.21-1.39.7-3.11.7-4.48,0-1.56.83-2.53,2.43-2.53,4.21,0,.18-.14.32-.32.32s-.32-.14-.32-.32c0-2.08,1.16-3.95,3.03-4.86l.15-.07.15.08c1.27.7,2.88.71,4.17,0l.15-.08.15.07c1.87.92,3.03,2.78,3.03,4.86,0,.18-.14.32-.32.32Z"/>
  <path class="cls-1" d="M11.75,31.18c-1.45,0-2.64,1.18-2.64,2.65s1.19,2.64,2.64,2.64,2.65-1.18,2.65-2.64-1.18-2.65-2.65-2.65ZM11.75,35.81c-1.1,0-1.99-.89-1.99-1.99s.89-2,1.99-2,2,.9,2,2-.9,1.99-2,1.99Z"/>
  <path class="cls-1" d="M16.85,41.79c-.18,0-.32-.14-.32-.32,0-1.78-.96-3.38-2.53-4.21-1.39.7-3.11.7-4.48,0-1.56.83-2.53,2.43-2.53,4.21,0,.18-.14.32-.32.32s-.32-.14-.32-.32c0-2.08,1.16-3.95,3.03-4.86l.15-.07.15.08c1.27.7,2.89.7,4.17,0l.15-.08.15.07c1.87.92,3.03,2.78,3.03,4.86,0,.18-.14.32-.32.32Z"/>
  <path class="cls-1" d="M25.33,31.18c-1.45,0-2.64,1.18-2.64,2.65s1.19,2.64,2.64,2.64,2.65-1.18,2.65-2.64-1.19-2.65-2.65-2.65ZM25.33,35.81c-1.1,0-1.99-.89-1.99-1.99s.89-2,1.99-2,2,.9,2,2-.9,1.99-2,1.99Z"/>
  <path class="cls-1" d="M30.42,41.79c-.18,0-.32-.14-.32-.32,0-1.78-.96-3.38-2.53-4.21-1.39.7-3.11.7-4.48,0-1.56.83-2.53,2.43-2.53,4.21,0,.18-.14.32-.32.32s-.32-.14-.32-.32c0-2.08,1.16-3.95,3.03-4.86l.15-.07.15.08c1.26.7,2.89.7,4.17,0l.15-.08.15.07c1.87.92,3.03,2.78,3.03,4.86,0,.18-.14.32-.32.32Z"/>
  <path class="cls-1" d="M38.25,31.18c-1.45,0-2.64,1.18-2.64,2.65s1.19,2.64,2.64,2.64,2.65-1.18,2.65-2.64-1.19-2.65-2.65-2.65ZM38.25,35.81c-1.1,0-2-.89-2-1.99s.9-2,2-2,2,.9,2,2-.9,1.99-2,1.99Z"/>
  <path class="cls-1" d="M43.33,41.79c-.18,0-.32-.14-.32-.32,0-1.78-.96-3.38-2.53-4.21-1.39.7-3.11.7-4.48,0-1.56.83-2.53,2.43-2.53,4.21,0,.18-.14.32-.32.32s-.32-.14-.32-.32c0-2.08,1.16-3.95,3.03-4.86l.15-.07.15.08c1.27.7,2.89.71,4.17,0l.15-.08.15.07c1.87.92,3.03,2.78,3.03,4.86,0,.18-.14.32-.32.32Z"/>
  <path class="cls-1" d="M8.83,9.97v13.67c0,.77.62,1.4,1.4,1.4h18.06c.77,0,1.4-.62,1.4-1.4v-13.67H8.83ZM29.04,23.64c0,.41-.33.75-.75.75H10.23c-.41,0-.75-.34-.75-.75v-13.03h19.57v13.03Z"/>
  <rect class="cls-1" x="14.43" y="21.73" width="12.21" height=".64"/>
  <rect class="cls-1" x="22.64" y="14.77" width="2.14" height="7.28"/>
  <rect class="cls-1" x="20.5" y="16.09" width="2.14" height="5.96"/>
  <rect class="cls-1" x="18.37" y="17.37" width="2.14" height="4.68"/>
  <rect class="cls-1" x="16.23" y="18.5" width="2.14" height="3.55"/>
  <path class="cls-1" d="M6.58,8.21v2.41h25.22v-2.41H6.58ZM31.16,9.97H7.23v-1.12h23.94v1.12Z"/>
</svg>