<?xml version="1.0" encoding="UTF-8"?>
<svg id="Calque_1" data-name="Calque 1" xmlns="http://www.w3.org/2000/svg" viewBox="0 0 50 50">
  <defs>
    <style>
      .cls-1 {
        fill: #093d4e;
      }
    </style>
  </defs>
  <path class="cls-1" d="M12.06,29.5c-1.64,0-2.99,1.33-2.99,2.98s1.34,2.99,2.99,2.99,2.98-1.34,2.98-2.99-1.34-2.98-2.98-2.98ZM12.06,34.74c-1.25,0-2.26-1.01-2.26-2.26s1.01-2.26,2.26-2.26,2.25,1.02,2.25,2.26-1.01,2.26-2.25,2.26Z"/>
  <path class="cls-1" d="M17.37,41.09l-.7-.19c.11-.41.17-.83.17-1.26,0-1.56-.74-3-2-3.9-.74.72-1.74,1.13-2.78,1.13s-2.04-.41-2.78-1.13c-1.26.9-2,2.33-2,3.9,0,.43.06.85.17,1.26l-.7.19c-.13-.47-.2-.96-.2-1.45,0-1.91.97-3.66,2.59-4.67l.26-.16.2.23c.62.71,1.52,1.11,2.46,1.11s1.84-.41,2.46-1.11l.2-.23.26.16c1.62,1.01,2.59,2.76,2.59,4.67,0,.49-.07.98-.19,1.45Z"/>
  <path class="cls-1" d="M27.62,11.53c0-1.45-1.17-2.62-2.62-2.62s-2.62,1.17-2.62,2.62,1.17,2.62,2.62,2.62,2.62-1.17,2.62-2.62Z"/>
  <path class="cls-1" d="M30.15,18.69c0,.47-.06.92-.18,1.36h-9.93c-.12-.43-.18-.89-.18-1.36,0-1.84.96-3.45,2.42-4.36.67.76,1.64,1.23,2.73,1.23s2.07-.48,2.73-1.23c1.45.91,2.42,2.52,2.42,4.36Z"/>
  <path class="cls-1" d="M24.98,29.5c-1.64,0-2.99,1.33-2.99,2.98s1.34,2.99,2.99,2.99,2.98-1.34,2.98-2.99-1.33-2.98-2.98-2.98ZM24.98,34.74c-1.25,0-2.26-1.01-2.26-2.26s1.01-2.26,2.26-2.26,2.26,1.02,2.26,2.26-1.02,2.26-2.26,2.26Z"/>
  <path class="cls-1" d="M30.29,41.09l-.7-.19c.11-.41.17-.83.17-1.26,0-1.56-.74-3-2-3.9-.74.72-1.74,1.13-2.78,1.13s-2.04-.41-2.78-1.13c-1.26.9-2,2.33-2,3.9,0,.43.06.85.17,1.26l-.7.19c-.13-.47-.2-.96-.2-1.45,0-1.91.97-3.66,2.59-4.67l.26-.16.2.23c.62.71,1.52,1.11,2.46,1.11s1.84-.41,2.46-1.11l.2-.23.26.16c1.62,1.02,2.59,2.76,2.59,4.67,0,.49-.07.98-.2,1.45Z"/>
  <path class="cls-1" d="M37.95,29.5c-1.64,0-2.99,1.33-2.99,2.98s1.34,2.99,2.99,2.99,2.98-1.34,2.98-2.99-1.33-2.98-2.98-2.98ZM37.95,34.74c-1.25,0-2.26-1.01-2.26-2.26s1.01-2.26,2.26-2.26,2.26,1.02,2.26,2.26-1.02,2.26-2.26,2.26Z"/>
  <path class="cls-1" d="M43.26,41.09l-.7-.19c.11-.41.17-.83.17-1.26,0-1.56-.74-3-2-3.9-.74.72-1.74,1.13-2.78,1.13s-2.04-.41-2.78-1.13c-1.26.9-2,2.33-2,3.9,0,.43.06.85.17,1.26l-.7.19c-.13-.47-.19-.96-.19-1.45,0-1.91.97-3.66,2.59-4.67l.26-.16.2.23c.62.71,1.52,1.11,2.46,1.11s1.84-.41,2.46-1.11l.2-.23.26.16c1.62,1.01,2.59,2.76,2.59,4.67,0,.49-.07.98-.2,1.45Z"/>
  <polygon class="cls-1" points="38.31 27.85 37.59 27.85 37.59 24.69 12.41 24.69 12.41 27.85 11.69 27.85 11.69 23.97 38.31 23.97 38.31 27.85"/>
  <rect class="cls-1" x="24.62" y="21.4" width=".72" height="6.45"/>
</svg>