<?xml version="1.0" encoding="UTF-8"?>
<svg id="Calque_1" data-name="Calque 1" xmlns="http://www.w3.org/2000/svg" viewBox="0 0 50 50">
  <defs>
    <style>
      .cls-1 {
        fill: #c9b292;
      }

      .cls-2 {
        fill: #093d4e;
      }
    </style>
  </defs>
  <path class="cls-2" d="M24.99,14.08c-1.19,0-2.15.96-2.15,2.15s.96,2.14,2.15,2.14,2.14-.96,2.14-2.14-.96-2.15-2.14-2.15ZM24.99,17.73c-.83,0-1.51-.67-1.51-1.5s.68-1.5,1.51-1.5,1.5.67,1.5,1.5-.67,1.5-1.5,1.5Z"/>
  <path class="cls-2" d="M28.98,22.56c-.18,0-.32-.14-.32-.32,0-1.36-.73-2.58-1.91-3.23-1.09.54-2.43.54-3.52,0-1.19.64-1.92,1.87-1.92,3.23,0,.18-.14.32-.32.32s-.32-.14-.32-.32c0-1.66.93-3.15,2.42-3.88l.15-.07.15.08c.98.54,2.22.54,3.21,0l.15-.08.15.07c1.49.73,2.42,2.22,2.42,3.88,0,.18-.14.32-.32.32Z"/>
  <path class="cls-2" d="M15.7,35.28c-1.18,0-2.14.96-2.14,2.14s.96,2.15,2.14,2.15,2.15-.96,2.15-2.15-.96-2.14-2.15-2.14ZM15.7,38.91c-.83,0-1.5-.67-1.5-1.5s.67-1.5,1.5-1.5,1.51.67,1.51,1.5-.68,1.5-1.51,1.5Z"/>
  <path class="cls-2" d="M19.7,43.75c-.18,0-.32-.14-.32-.32,0-1.36-.73-2.58-1.91-3.23-1.09.54-2.44.53-3.52,0-1.19.64-1.92,1.87-1.92,3.23,0,.18-.14.32-.32.32s-.32-.14-.32-.32c0-1.66.93-3.15,2.42-3.88l.15-.07.15.08c.98.54,2.22.54,3.21,0l.15-.08.15.07c1.49.73,2.42,2.22,2.42,3.88,0,.18-.14.32-.32.32Z"/>
  <path class="cls-2" d="M24.99,35.28c-1.19,0-2.15.96-2.15,2.14s.96,2.15,2.15,2.15,2.14-.96,2.14-2.15-.96-2.14-2.14-2.14ZM24.99,38.91c-.83,0-1.51-.67-1.51-1.5s.68-1.5,1.51-1.5,1.5.67,1.5,1.5-.67,1.5-1.5,1.5Z"/>
  <path class="cls-2" d="M28.98,43.75c-.18,0-.32-.14-.32-.32,0-1.36-.73-2.58-1.91-3.23-1.09.54-2.44.53-3.52,0-1.19.64-1.92,1.87-1.92,3.23,0,.18-.14.32-.32.32s-.32-.14-.32-.32c0-1.66.93-3.15,2.42-3.88l.15-.07.15.08c.98.54,2.22.54,3.21,0l.15-.08.15.07c1.49.73,2.42,2.22,2.42,3.88,0,.18-.14.32-.32.32Z"/>
  <path class="cls-2" d="M34.31,35.28c-1.19,0-2.15.96-2.15,2.14s.96,2.15,2.15,2.15,2.14-.96,2.14-2.15-.96-2.14-2.14-2.14ZM34.31,38.91c-.83,0-1.5-.67-1.5-1.5s.67-1.5,1.5-1.5,1.5.67,1.5,1.5-.67,1.5-1.5,1.5Z"/>
  <path class="cls-2" d="M38.3,43.75c-.18,0-.32-.14-.32-.32,0-1.36-.73-2.58-1.91-3.23-1.09.54-2.44.53-3.52,0-1.19.64-1.92,1.87-1.92,3.23,0,.18-.14.32-.32.32s-.32-.14-.32-.32c0-1.66.93-3.15,2.42-3.88l.15-.07.15.08c.98.54,2.22.54,3.21,0l.15-.08.15.07c1.49.73,2.42,2.22,2.42,3.88,0,.18-.14.32-.32.32Z"/>
  <rect class="cls-2" x="18.8" y="22.25" width="12.37" height="2.28"/>
  <path class="cls-2" d="M30.7,32.56h-11.43v-8.02c0-.18.14-.32.32-.32s.32.14.32.32v7.38h10.14v-7.38c0-.18.14-.32.32-.32s.32.14.32.32v8.02Z"/>
  <path class="cls-1" d="M33.22,6.25c-2.67,0-4.83,2.17-4.83,4.83,0,1.09.36,2.09.97,2.9l-.36,2.8,2.59-1.15c.51.17,1.06.28,1.63.28,2.66,0,4.83-2.16,4.83-4.83s-2.17-4.83-4.83-4.83ZM33.54,12.99h-2.38c-.17,0-.32-.15-.32-.32s.15-.32.32-.32h2.38c.18,0,.33.15.33.32s-.15.32-.33.32ZM35.29,11.59h-4.13c-.17,0-.32-.15-.32-.32,0-.18.15-.32.32-.32h4.13c.17,0,.32.14.32.32s-.15.32-.32.32ZM35.29,10.18h-4.13c-.17,0-.32-.15-.32-.33s.15-.32.32-.32h4.13c.17,0,.32.15.32.32,0,.18-.15.33-.32.33Z"/>
</svg>