<?xml version="1.0" encoding="UTF-8"?>
<svg id="Calque_1" data-name="Calque 1" xmlns="http://www.w3.org/2000/svg" viewBox="0 0 50 50">
  <defs>
    <style>
      .cls-1 {
        fill: #c9b292;
      }

      .cls-2 {
        fill: #093d4e;
      }
    </style>
  </defs>
  <path class="cls-1" d="M30.13,5.67c-5.23,0-9.46,4.23-9.46,9.46,0,2.14.71,4.11,1.9,5.69l-.7,5.49,5.08-2.27c.99.36,2.07.55,3.18.55,5.23,0,9.46-4.23,9.46-9.46s-4.23-9.46-9.46-9.46ZM30.76,18.62h-4.67v-.76h4.67v.76ZM34.18,15.86h-8.08v-.76h8.08v.76ZM34.18,13.11h-8.08v-.76h8.08v.76Z"/>
  <path class="cls-2" d="M18.61,28.24c-2.18,0-3.94,1.76-3.94,3.95s1.76,3.94,3.94,3.94,3.95-1.76,3.95-3.94-1.77-3.95-3.95-3.95ZM18.61,35.38c-1.75,0-3.19-1.43-3.19-3.19s1.43-3.2,3.19-3.2,3.19,1.43,3.19,3.2-1.42,3.19-3.19,3.19Z"/>
  <path class="cls-2" d="M26.44,44.33c-.21,0-.38-.17-.38-.38,0-2.8-1.53-5.31-4-6.6-2.13,1.09-4.79,1.09-6.9,0-2.47,1.29-4,3.8-4,6.6,0,.21-.17.38-.38.38s-.38-.17-.38-.38c0-3.16,1.76-5.99,4.6-7.37l.18-.09.17.1c1.99,1.1,4.51,1.1,6.52,0l.17-.1.18.09c2.83,1.39,4.59,4.22,4.59,7.37,0,.21-.17.38-.38.38Z"/>
</svg>