<?xml version="1.0" encoding="UTF-8"?>
<svg id="Calque_1" data-name="Calque 1" xmlns="http://www.w3.org/2000/svg" viewBox="0 0 50 50">
  <defs>
    <style>
      .cls-1 {
        fill: #093d4e;
      }
    </style>
  </defs>
  <g>
    <path class="cls-1" d="M10.34,17.96h1.48v11.75h-1.48c-2.26,0-4.09-1.83-4.09-4.09v-3.57c0-2.26,1.83-4.09,4.09-4.09Z"/>
    <path class="cls-1" d="M10.34,17.62c-2.44,0-4.43,1.98-4.43,4.43v3.57c0,2.44,1.98,4.43,4.43,4.43h1.82v-12.43h-1.82ZM11.48,29.36h-1.14c-2.07,0-3.75-1.68-3.75-3.75v-3.57c0-2.07,1.68-3.75,3.75-3.75h1.14v11.07Z"/>
  </g>
  <path class="cls-1" d="M32.81,34.92l-.51-.29c-.07-.04-7.48-4.17-20.49-4.59l.02-.68c11.26.36,18.4,3.49,20.3,4.42V13.88c-1.89.93-9.03,4.05-20.3,4.42l-.02-.68c13.01-.42,20.42-4.55,20.49-4.59l.51-.29v22.18Z"/>
  <path class="cls-1" d="M17.81,37.26h-.99c-1.48,0-2.69-1.21-2.69-2.69v-4.7h.68v4.7c0,1.11.9,2.01,2.01,2.01h.99c.26,0,.48-.22.48-.48v-5.68h.68v5.68c0,.64-.52,1.16-1.16,1.16Z"/>
  <path class="cls-1" d="M33.38,20.2c1.53.66,2.61,2.19,2.61,3.97s-1.08,3.3-2.61,3.96v-7.93Z"/>
  <path class="cls-1" d="M43.75,24.51h-4.1c-.19,0-.34-.15-.34-.34s.15-.34.34-.34h4.1c.19,0,.34.15.34.34s-.15.34-.34.34Z"/>
  <path class="cls-1" d="M38.96,21.27c-.13,0-.25-.07-.31-.2-.08-.17,0-.37.17-.45l3.79-1.69c.17-.07.37,0,.45.17.08.17,0,.37-.17.45l-3.79,1.69s-.09.03-.14.03Z"/>
  <path class="cls-1" d="M37.05,18.6c-.08,0-.16-.03-.23-.09-.14-.13-.15-.34-.03-.48l2.8-3.12c.12-.14.34-.15.48-.03.14.13.15.34.03.48l-2.8,3.12c-.07.07-.16.11-.25.11Z"/>
  <path class="cls-1" d="M39.64,33.43c-.09,0-.18-.04-.25-.11l-2.67-2.96c-.13-.14-.11-.35.03-.48.14-.13.35-.11.48.02l2.67,2.96c.13.14.11.35-.03.48-.06.06-.15.09-.23.09Z"/>
  <path class="cls-1" d="M42.65,29.4s-.09,0-.14-.03l-3.69-1.64c-.17-.08-.25-.28-.17-.45.08-.17.28-.25.45-.17l3.69,1.64c.17.08.25.28.17.45-.06.13-.18.2-.31.2Z"/>
  <path class="cls-1" d="M29.4,33.32c-.19,0-.34-.15-.34-.34V14.68c0-.19.15-.34.34-.34s.34.15.34.34v18.3c0,.19-.15.34-.34.34Z"/>
</svg>