<?xml version="1.0" encoding="UTF-8"?>
<svg id="Calque_1" data-name="Calque 1" xmlns="http://www.w3.org/2000/svg" viewBox="0 0 50 50">
  <defs>
    <style>
      .cls-1 {
        fill: #093d4e;
      }
    </style>
  </defs>
  <g>
    <path class="cls-1" d="M40.97,43.69h-1.48V11.51c0-.87-.72-1.6-1.6-1.6h-1.18v-2.13c0-.89-.72-1.61-1.6-1.61h-6.51c-.89,0-1.61.72-1.61,1.61v2.13h-1.11l-.46.67h12.47c.51,0,.94.41.94.93v32.18h-3.87v-8.79h1.07c.18,0,.33-.15.33-.33s-.15-.33-.33-.33h-8.35c-.18,0-.34.15-.34.33s.16.33.34.33h1.07v8.79h-3.86v-22.17c-.2.25-.42.47-.66.68v21.5h-10.32v-21.46c0-.19.06-.39.18-.54-.16-.17-.3-.34-.43-.52-.27.28-.41.66-.42,1.07v21.46h-1.75c-.17,0-.33.15-.33.33s.16.33.33.33h29.48c.18,0,.34-.15.34-.33s-.16-.33-.34-.33ZM36.06,9.91h-8.39v-2.13c0-.52.41-.95.94-.95h6.51c.51,0,.94.42.94.95v2.13ZM34.3,43.69h-4.89v-8.79h4.89v8.79Z"/>
    <path class="cls-1" d="M16.98,31.41h4.17c.18,0,.34-.15.34-.33s-.15-.33-.34-.33h-4.17c-.18,0-.33.15-.33.33s.15.33.33.33Z"/>
    <path class="cls-1" d="M16.98,35.46h4.17c.18,0,.34-.15.34-.33s-.15-.34-.34-.34h-4.17c-.18,0-.33.15-.33.34s.15.33.33.33Z"/>
    <path class="cls-1" d="M16.98,39.5h4.17c.18,0,.34-.15.34-.33s-.15-.33-.34-.33h-4.17c-.18,0-.33.15-.33.33s.15.33.33.33Z"/>
    <path class="cls-1" d="M28.02,29.38h7.67c.18,0,.33-.15.33-.33s-.15-.33-.33-.33h-7.67c-.18,0-.33.15-.33.33s.15.33.33.33Z"/>
    <path class="cls-1" d="M28.02,24.83h7.67c.18,0,.33-.15.33-.33s-.15-.33-.33-.33h-7.67c-.18,0-.33.15-.33.33s.15.33.33.33Z"/>
  </g>
  <g>
    <path class="cls-1" d="M19.42,10.87c-3.34,0-6.05,2.71-6.05,6.04,0,2.21,1.2,4.15,2.99,5.21v3.75h0c.06.94.85,1.68,1.8,1.68h.06c.12.53.6.94,1.17.94s1.07-.4,1.18-.94h.06c.96,0,1.74-.74,1.81-1.68h0v-3.75c1.79-1.04,2.99-2.99,2.99-5.21,0-3.33-2.7-6.04-6.04-6.04ZM15.49,16.91c0,.14-.1.25-.24.25-.15,0-.26-.11-.26-.25,0-1.42.69-2.77,1.86-3.61.11-.07.27-.05.35.06.08.12.06.27-.06.36-1.04.73-1.65,1.92-1.65,3.19ZM20.64,27.04h-2.47c-.67,0-1.23-.51-1.3-1.17h5.09c-.07.65-.63,1.17-1.31,1.17ZM21.96,25.36h-5.09v-1.18h5.09v1.18ZM21.96,23.69h-5.09v-1.17h2.3v-3.25l-.99-1.3.4-.3.85,1.1.96-1.11.38.32-1.1,1.29v3.25h2.29v1.17Z"/>
    <path class="cls-1" d="M19.41,9.11c.14,0,.25-.11.25-.25v-2.96c0-.14-.11-.25-.25-.25s-.25.11-.25.25v2.96c0,.14.11.25.25.25Z"/>
    <path class="cls-1" d="M14.68,10.65c.05,0,.1-.02.15-.05.11-.08.14-.24.05-.35l-1.74-2.4c-.08-.11-.24-.14-.35-.06-.11.08-.14.24-.05.35l1.74,2.4c.05.07.13.1.2.1Z"/>
    <path class="cls-1" d="M11.83,14.18l-2.81-.91c-.13-.04-.27.03-.32.16s.03.27.16.32l2.81.91s.05.01.08.01c.11,0,.2-.07.24-.17.04-.13-.03-.27-.16-.32Z"/>
    <path class="cls-1" d="M11.68,19.16l-2.81.91c-.13.04-.2.18-.16.32.03.11.13.17.24.17.03,0,.05,0,.08-.01l2.81-.91c.13-.04.2-.18.16-.32-.04-.13-.19-.21-.32-.16Z"/>
    <path class="cls-1" d="M29.96,20.07l-2.81-.91c-.13-.04-.27.03-.32.16s.03.27.16.32l2.81.91s.05.01.08.01c.11,0,.2-.07.24-.17.04-.13-.03-.27-.16-.32Z"/>
    <path class="cls-1" d="M27.07,14.67s.05,0,.08-.01l2.81-.91c.13-.04.2-.18.16-.32-.04-.13-.19-.2-.32-.16l-2.81.91c-.13.04-.2.18-.16.32.03.11.13.17.24.17Z"/>
    <path class="cls-1" d="M25.68,7.86l-1.74,2.39c-.08.11-.06.27.05.35.05.03.1.05.15.05.08,0,.15-.04.2-.1l1.74-2.39c.08-.11.06-.27-.05-.35-.11-.08-.27-.06-.35.06Z"/>
  </g>
</svg>