<?xml version="1.0" encoding="UTF-8"?>
<svg id="Calque_1" data-name="Calque 1" xmlns="http://www.w3.org/2000/svg" viewBox="0 0 50 50">
  <defs>
    <style>
      .cls-1 {
        fill: #093d4e;
      }
    </style>
  </defs>
  <path class="cls-1" d="M24.14,29.26l-.11.39-.11.39-.28-.1c-.21-.07-.32-.3-.25-.51.07-.2.3-.31.51-.24l.19.06.05.02Z"/>
  <path class="cls-1" d="M43.47,10.82l-5.76,24.07-9.8-3.45-3.24-1.14.11-.39.11-.39,12.25,4.32,5.21-21.79-.14.05-.68.23L8.96,23.38l9.71,3.5c.08.03.16.08.2.16.06.1.08.23.04.36-.05.14-.16.23-.28.26-.07,0-.15,0-.22-.02l-11.88-4.27,36.95-12.54Z"/>
  <polygon class="cls-1" points="28.17 31.1 27.91 31.43 22.12 39.09 24.67 30.3 24.78 29.91 28.17 31.1"/>
  <polygon class="cls-1" points="42.91 11.44 42.21 12.1 24.22 29.12 24.16 29.17 24.09 29.24 23.76 29.55 24.03 29.64 23.92 30.03 21.25 39.18 18.63 27.65 18.53 27.26 18.87 27.03 41.53 12.33 42.91 11.44"/>
  <polygon class="cls-1" points="24.22 29.12 24.16 29.17 24.18 29.11 24.22 29.12"/>
</svg>