<?xml version="1.0" encoding="UTF-8"?>
<svg id="Calque_1" data-name="Calque 1" xmlns="http://www.w3.org/2000/svg" viewBox="0 0 50 50">
  <defs>
    <style>
      .cls-1 {
        fill: #093d4e;
      }
    </style>
  </defs>
  <rect class="cls-1" x="6.47" y="39.63" width="37.06" height="4.46"/>
  <path class="cls-1" d="M8.23,25.22v11.9h5.51v-11.9h-5.51ZM12.69,36.07h-3.42v-9.81h3.42v9.81Z"/>
  <path class="cls-1" d="M17.64,19.04v18.07h5.5v-18.07h-5.5ZM22.11,36.07h-3.42v-15.97h3.42v15.97Z"/>
  <path class="cls-1" d="M36.27,14.44v22.67h5.5V14.44h-5.5ZM40.74,36.07h-3.42V15.48h3.42v20.59Z"/>
  <path class="cls-1" d="M26.86,22.38v14.73h5.5v-14.73h-5.5ZM31.32,36.07h-3.42v-12.64h3.42v12.64Z"/>
  <path class="cls-1" d="M12.04,17c.28.21.49.51.57.86h0s-1.35.89-1.35.89l-.57-.87,1.35-.88Z"/>
  <path class="cls-1" d="M17.85,13.19c.13.32.33.62.57.87l-4.9,3.21c-.13-.32-.33-.62-.57-.87l4.9-3.21Z"/>
  <path class="cls-1" d="M20.32,11.57l1.77.64c0,.37-.14.71-.36.97l-1.28-.46-1.14.74c-.28-.22-.48-.52-.57-.87l1.57-1.03Z"/>
  <path class="cls-1" d="M23.1,12.58l4.15,1.5c-.18.29-.3.62-.36.98l-4.14-1.51c.17-.29.29-.62.35-.97Z"/>
  <path class="cls-1" d="M31.19,14.85l-1.47,1.23-1.81-.65c0-.37.14-.71.36-.98l1.24.45,1.01-.85c.3.18.54.46.67.8Z"/>
  <path class="cls-1" d="M37.29,9.75l-5.26,4.4c-.18-.31-.4-.57-.67-.8l5.26-4.4c.17.31.4.58.67.8Z"/>
  <path class="cls-1" d="M39.35,8.02l-1.24,1.04c-.3-.19-.54-.47-.67-.81l1.24-1.04.67.81Z"/>
  <path class="cls-1" d="M22.1,12.15s0,.05,0,.06c0,.37-.14.71-.36.97-.3.41-.79.67-1.34.67-.41,0-.78-.15-1.07-.39-.28-.22-.48-.52-.57-.87-.05-.15-.06-.29-.06-.45,0-.94.76-1.71,1.71-1.71s1.71.77,1.71,1.71Z"/>
  <path class="cls-1" d="M31.32,15.48c0,.95-.76,1.71-1.71,1.71s-1.71-.76-1.71-1.71c0-.02,0-.04,0-.06,0-.37.14-.71.36-.98.3-.4.79-.67,1.34-.67.34,0,.65.1.91.28.3.18.54.46.67.8.08.19.13.41.13.63Z"/>
  <path class="cls-1" d="M40.73,7.62c0,.94-.77,1.71-1.71,1.71-.34,0-.65-.1-.91-.27-.3-.19-.54-.47-.67-.81-.08-.19-.13-.41-.13-.63,0-.94.76-1.71,1.71-1.71s1.71.77,1.71,1.71Z"/>
  <path class="cls-1" d="M12.69,18.32c0,.94-.77,1.71-1.71,1.71s-1.71-.77-1.71-1.71.77-1.71,1.71-1.71c.4,0,.77.14,1.07.39.28.21.49.51.57.86h0c.06.16.07.3.07.46Z"/>
</svg>