<?xml version="1.0" encoding="UTF-8"?>
<svg id="Calque_1" data-name="Calque 1" xmlns="http://www.w3.org/2000/svg" viewBox="0 0 50 50">
  <defs>
    <style>
      .cls-1 {
        fill: #093d4e;
      }
    </style>
  </defs>
  <g>
    <path class="cls-1" d="M19.04,19.72v11.32h2.3v-11.32h-2.3ZM20.82,30.54h-1.27v-10.3h1.27v10.3Z"/>
    <path class="cls-1" d="M14.87,21.71v9.33h2.29v-9.33h-2.29ZM16.64,30.54h-1.26v-8.31h1.26v8.31Z"/>
    <path class="cls-1" d="M10.84,23.63v7.41h2.29v-7.41h-2.29ZM12.62,30.54h-1.27v-6.4h1.27v6.4Z"/>
    <path class="cls-1" d="M7.1,25.12v5.92h2.3v-5.92h-2.3ZM8.88,30.54h-1.27v-4.9h1.27v4.9Z"/>
    <polygon class="cls-1" points="7.88 21.44 7.67 20.97 16.79 16.8 17.01 17.26 7.88 21.44"/>
    <polygon class="cls-1" points="16.34 15.69 18.93 16.08 17.45 18.44 16.34 15.69"/>
    <path class="cls-1" d="M20.78,32.67H7.64c-1.03,0-1.87.84-1.87,1.87h16.87c0-1.03-.84-1.87-1.87-1.87Z"/>
  </g>
  <g>
    <path class="cls-1" d="M28.67,19.72v11.32h2.3v-11.32h-2.3ZM30.46,30.54h-1.27v-10.3h1.27v10.3Z"/>
    <path class="cls-1" d="M32.84,21.71v9.33h2.3v-9.33h-2.3ZM34.63,30.54h-1.27v-8.31h1.27v8.31Z"/>
    <path class="cls-1" d="M36.88,23.63v7.41h2.29v-7.41h-2.29ZM38.65,30.54h-1.27v-6.4h1.27v6.4Z"/>
    <path class="cls-1" d="M40.62,25.12v5.92h2.3v-5.92h-2.3ZM42.4,30.54h-1.27v-4.9h1.27v4.9Z"/>
    <polygon class="cls-1" points="40.09 20.1 30.97 15.92 31.18 15.46 40.3 19.63 40.09 20.1"/>
    <polygon class="cls-1" points="39.64 21.2 42.23 20.81 40.75 18.45 39.64 21.2"/>
    <path class="cls-1" d="M29.22,32.67h13.13c1.03,0,1.87.84,1.87,1.87h-16.87c0-1.03.84-1.87,1.87-1.87Z"/>
  </g>
</svg>