<?xml version="1.0" encoding="UTF-8"?>
<svg id="Calque_1" data-name="Calque 1" xmlns="http://www.w3.org/2000/svg" viewBox="0 0 50 50">
  <defs>
    <style>
      .cls-1 {
        fill: #093d4e;
      }
    </style>
  </defs>
  <polygon class="cls-1" points="11.26 23.06 7.78 20.95 11.26 18.93 11.54 19.42 8.88 20.96 11.55 22.58 11.26 23.06"/>
  <path class="cls-1" d="M7.63,20.96c0-.39.31-.7.7-.7s.7.31.7.7-.31.7-.7.7-.7-.31-.7-.7Z"/>
  <circle class="cls-1" cx="11.4" cy="19.18" r=".7"/>
  <path class="cls-1" d="M10.7,22.82c0-.39.31-.7.7-.7s.7.31.7.7-.31.7-.7.7-.7-.31-.7-.7Z"/>
  <path class="cls-1" d="M14.99,20.86c0-2.65-2.15-4.81-4.81-4.81s-4.81,2.16-4.81,4.81,2.16,4.81,4.81,4.81c.52,0,1.03-.08,1.52-.23l2.78,1.24-.39-3.02c.59-.81.9-1.78.9-2.8ZM11.71,24.83l-.1.04c-.46.16-.94.24-1.43.24-2.34,0-4.25-1.9-4.25-4.25s1.91-4.25,4.25-4.25,4.26,1.91,4.26,4.25c0,.94-.3,1.82-.86,2.56l-.06.09.28,2.25-2.09-.93Z"/>
  <polygon class="cls-1" points="40.89 23.06 37.41 20.95 40.89 18.93 41.17 19.42 38.51 20.96 41.18 22.58 40.89 23.06"/>
  <path class="cls-1" d="M37.26,20.96c0-.39.31-.7.7-.7s.7.31.7.7-.31.7-.7.7-.7-.31-.7-.7Z"/>
  <circle class="cls-1" cx="41.03" cy="19.18" r=".7"/>
  <path class="cls-1" d="M40.33,22.82c0-.39.31-.7.7-.7s.7.31.7.7-.31.7-.7.7-.7-.31-.7-.7Z"/>
  <path class="cls-1" d="M44.43,19.52c-.37-1.22-1.21-2.24-2.34-2.85-1.13-.6-2.43-.74-3.66-.37-2.55.77-3.99,3.46-3.23,6,.15.5.38.96.67,1.38l-.38,3.02,2.77-1.23c.96.32,1.98.34,2.94.06,2.09-.64,3.43-2.56,3.43-4.62,0-.46-.07-.93-.2-1.39ZM41.05,24.99c-.9.27-1.83.24-2.7-.08l-.11-.04-2.07.92.28-2.27-.06-.08c-.29-.39-.51-.83-.64-1.3-.68-2.24.59-4.62,2.84-5.3.41-.12.82-.19,1.23-.19.69,0,1.38.18,2.01.52,1,.53,1.73,1.43,2.06,2.52.67,2.25-.59,4.62-2.84,5.3Z"/>
  <path class="cls-1" d="M28,13.3c-2.61-1.81-6.19-1.15-7.99,1.46-1.81,2.62-1.15,6.2,1.46,8,.56.39,1.16.66,1.78.83l1.76,2.88,1.55-2.98c1.14-.39,2.18-1.12,2.91-2.2,1.8-2.61,1.15-6.19-1.47-7.99ZM22.99,18.07c0,.06-.01.13-.03.19l2.46,1.49c.16-.13.35-.21.57-.21.5,0,.89.39.89.88s-.39.89-.89.89-.88-.39-.88-.89c0-.06.01-.14.03-.19l-2.48-1.49c-.14.14-.34.22-.56.22-.5,0-.9-.4-.9-.89s.4-.89.9-.89c.22,0,.42.08.57.23l2.46-1.43s-.02-.11-.02-.17c0-.5.39-.89.88-.89s.89.39.89.89-.39.88-.89.88c-.22,0-.42-.08-.58-.22l-2.44,1.41c.01.06.02.12.02.19Z"/>
  <path class="cls-1" d="M17.26,26.38c-1.32,0-2.4,1.08-2.4,2.4s1.08,2.41,2.4,2.41,2.4-1.09,2.4-2.41-1.07-2.4-2.4-2.4ZM17.26,30.63c-1.02,0-1.84-.83-1.84-1.85s.82-1.85,1.84-1.85,1.85.83,1.85,1.85-.83,1.85-1.85,1.85Z"/>
  <path class="cls-1" d="M21.88,34.05c-.16.15-.3.3-.44.45-.33-1.11-1.1-2.04-2.13-2.59-1.27.65-2.83.65-4.1,0-1.44.76-2.33,2.23-2.33,3.87,0,.16-.12.28-.28.28-.15,0-.28-.12-.28-.28,0-1.9,1.06-3.6,2.77-4.43l.13-.07.13.07c1.16.65,2.64.65,3.82,0l.13-.07.13.07c1.14.56,2.02,1.53,2.45,2.7Z"/>
  <path class="cls-1" d="M33.04,26.38c-1.33,0-2.41,1.08-2.41,2.4s1.08,2.41,2.41,2.41,2.39-1.09,2.39-2.41-1.07-2.4-2.39-2.4ZM33.04,30.63c-1.02,0-1.85-.83-1.85-1.85s.83-1.85,1.85-1.85,1.84.83,1.84,1.85-.82,1.85-1.84,1.85Z"/>
  <path class="cls-1" d="M37.97,35.78c0,.16-.13.28-.28.28-.16,0-.28-.12-.28-.28,0-1.64-.89-3.11-2.33-3.87-1.27.65-2.83.65-4.1,0-1.03.55-1.8,1.48-2.14,2.6-.13-.15-.27-.3-.43-.45.43-1.17,1.31-2.15,2.45-2.71l.13-.07.13.07c1.18.65,2.66.65,3.82,0l.13-.07.13.07c1.71.83,2.77,2.53,2.77,4.43Z"/>
  <path class="cls-1" d="M27.02,30.73c0,1.03-.85,1.87-1.88,1.87s-1.87-.84-1.87-1.87.84-1.88,1.87-1.88,1.88.84,1.88,1.88Z"/>
  <path class="cls-1" d="M29.55,37.73h-8.82c0-1.11.4-2.14,1.12-2.93.04-.06.1-.12.17-.18.3-.31.66-.58,1.07-.8,1.26.65,2.84.65,4.1,0,.41.22.77.49,1.08.8t0,.02c.06.05.11.1.14.15.72.79,1.13,1.83,1.13,2.94Z"/>
</svg>