<?xml version="1.0" encoding="UTF-8"?>
<svg id="Calque_1" data-name="Calque 1" xmlns="http://www.w3.org/2000/svg" viewBox="0 0 50 50">
  <defs>
    <style>
      .cls-1 {
        fill: #093d4e;
      }
    </style>
  </defs>
  <g>
    <path class="cls-1" d="M13.21,26.29c-2,0-3.64,1.64-3.64,3.64s1.63,3.63,3.64,3.63,3.63-1.63,3.63-3.63-1.63-3.64-3.63-3.64ZM13.21,32.78c-1.58,0-2.87-1.29-2.87-2.86s1.29-2.86,2.87-2.86,2.86,1.28,2.86,2.86-1.29,2.86-2.86,2.86Z"/>
    <path class="cls-1" d="M16.8,32.58l-.28-.17-.22.25c-.78.89-1.9,1.4-3.09,1.4s-2.31-.51-3.1-1.4l-.22-.25-.28.17c-1.99,1.25-3.18,3.39-3.18,5.74,0,.3.02.61.06.91h.78c-.05-.3-.07-.61-.07-.91,0-1.97.95-3.78,2.55-4.91.91.9,2.15,1.41,3.44,1.41s2.53-.51,3.44-1.41c1.61,1.12,2.55,2.93,2.55,4.91,0,.3-.03.61-.08.91h.8c.04-.3.05-.61.05-.91,0-2.35-1.19-4.49-3.17-5.74Z"/>
  </g>
  <g>
    <path class="cls-1" d="M25.38,10.77c-2,0-3.64,1.64-3.64,3.64s1.63,3.63,3.64,3.63,3.63-1.63,3.63-3.63-1.63-3.64-3.63-3.64ZM25.38,17.26c-1.58,0-2.87-1.29-2.87-2.86s1.29-2.86,2.87-2.86,2.86,1.28,2.86,2.86-1.29,2.86-2.86,2.86Z"/>
    <path class="cls-1" d="M28.97,17.06l-.28-.17-.22.25c-.78.89-1.9,1.4-3.09,1.4s-2.31-.51-3.1-1.4l-.22-.25-.28.17c-1.99,1.25-3.18,3.39-3.18,5.74,0,.3.02.61.06.91h.78c-.05-.3-.07-.61-.07-.91,0-1.97.95-3.78,2.55-4.91.91.9,2.15,1.41,3.44,1.41s2.53-.51,3.44-1.41c1.61,1.12,2.55,2.93,2.55,4.91,0,.3-.03.61-.08.91h.8c.04-.3.05-.61.05-.91,0-2.35-1.19-4.49-3.17-5.74Z"/>
  </g>
  <path class="cls-1" d="M36.79,26.29c-2,0-3.64,1.64-3.64,3.64s1.64,3.63,3.64,3.63,3.63-1.63,3.63-3.63-1.63-3.64-3.63-3.64ZM36.79,32.78c-1.58,0-2.86-1.29-2.86-2.86s1.28-2.86,2.86-2.86,2.86,1.28,2.86,2.86-1.29,2.86-2.86,2.86Z"/>
  <path class="cls-1" d="M40.38,32.58l-.28-.17-.21.25c-.79.89-1.91,1.4-3.1,1.4s-2.31-.51-3.1-1.4l-.22-.25-.28.17c-1.99,1.25-3.18,3.39-3.18,5.74,0,.3.02.61.06.91h.78c-.05-.3-.07-.61-.07-.91,0-1.97.95-3.78,2.55-4.91.91.9,2.15,1.41,3.44,1.41s2.53-.51,3.44-1.41c1.61,1.12,2.55,2.93,2.55,4.91,0,.3-.03.61-.08.91h.8c.05-.3.06-.61.06-.91,0-2.35-1.19-4.49-3.18-5.74Z"/>
  <polygon class="cls-1" points="30.21 31.7 25.99 29.26 25.99 24.39 24.75 24.39 24.75 29.26 20.53 31.7 21.15 32.77 25.37 30.33 29.59 32.77 30.21 31.7"/>
</svg>