<?xml version="1.0" encoding="UTF-8"?>
<svg id="Calque_1" data-name="Calque 1" xmlns="http://www.w3.org/2000/svg" viewBox="0 0 50 50">
  <defs>
    <style>
      .cls-1 {
        fill: #c9b292;
      }

      .cls-2 {
        fill: #093d4e;
      }
    </style>
  </defs>
  <g>
    <path class="cls-2" d="M12.19,18.64c-1.84,0-3.32,1.5-3.32,3.33s1.49,3.33,3.32,3.33,3.33-1.49,3.33-3.33-1.5-3.33-3.33-3.33ZM12.19,24.67c-1.5,0-2.71-1.21-2.71-2.71s1.21-2.7,2.71-2.7,2.7,1.21,2.7,2.7-1.21,2.71-2.7,2.71Z"/>
    <path class="cls-2" d="M15.5,24.88l-.22-.15-.17.2c-.74.84-1.8,1.31-2.91,1.31s-2.18-.48-2.91-1.31l-.17-.2-.23.15c-1.83,1.15-2.92,3.12-2.92,5.28,0,.4.04.81.11,1.2h.63c-.08-.39-.13-.79-.13-1.2,0-1.86.9-3.57,2.43-4.62.85.85,1.99,1.33,3.2,1.33s2.35-.49,3.19-1.33c1.53,1.05,2.43,2.76,2.43,4.62,0,.41-.05.81-.14,1.2h.64c.07-.39.11-.8.11-1.2,0-2.16-1.09-4.13-2.93-5.28Z"/>
  </g>
  <g>
    <path class="cls-2" d="M37.81,18.64c-1.84,0-3.33,1.5-3.33,3.33s1.49,3.33,3.33,3.33,3.32-1.49,3.32-3.33-1.5-3.33-3.32-3.33ZM37.81,24.67c-1.5,0-2.71-1.21-2.71-2.71s1.21-2.7,2.71-2.7,2.7,1.21,2.7,2.7-1.21,2.71-2.7,2.71Z"/>
    <path class="cls-2" d="M41.11,24.88l-.22-.15-.17.2c-.74.84-1.8,1.31-2.91,1.31s-2.18-.48-2.91-1.31l-.17-.2-.23.15c-1.83,1.15-2.92,3.12-2.92,5.28,0,.4.04.81.11,1.2h.63c-.08-.39-.13-.79-.13-1.2,0-1.86.9-3.57,2.43-4.62.85.85,1.99,1.33,3.2,1.33s2.35-.49,3.19-1.33c1.53,1.05,2.43,2.76,2.43,4.62,0,.41-.05.81-.14,1.2h.64c.07-.39.11-.8.11-1.2,0-2.16-1.09-4.13-2.93-5.28Z"/>
  </g>
  <g>
    <rect class="cls-1" x="20.37" y="27.08" width="6.5" height=".62"/>
    <polygon class="cls-1" points="27.07 29.6 26.68 29.11 28.81 27.4 26.69 25.76 27.07 25.27 29.81 27.39 27.07 29.6"/>
  </g>
  <g>
    <rect class="cls-1" x="22.81" y="21.38" width="6.5" height=".62"/>
    <polygon class="cls-1" points="22.61 23.9 19.88 21.69 22.62 19.57 23 20.06 20.87 21.7 23 23.42 22.61 23.9"/>
  </g>
</svg>