<?xml version="1.0" encoding="UTF-8"?>
<svg id="Calque_1" data-name="Calque 1" xmlns="http://www.w3.org/2000/svg" viewBox="0 0 50 50">
  <defs>
    <style>
      .cls-1 {
        fill: #c9b292;
      }

      .cls-2 {
        fill: #093d4e;
      }
    </style>
  </defs>
  <rect class="cls-2" x="8.54" y="41.03" width="32.92" height="2.93" rx=".14" ry=".14"/>
  <path class="cls-2" d="M25.31,15.95h0s-.31-.17-.31-.17l-.29.17h0s-15.74,8.72-15.74,8.72l-.22.15.15.49h32.02l.27-.03.11-.5-15.96-8.83ZM10.18,24.68l14.83-8.2,14.83,8.2H10.18Z"/>
  <path class="cls-1" d="M25.31,6.35v9.14h-.62V6.35c0-.17.14-.3.31-.3.17,0,.3.14.3.3Z"/>
  <path class="cls-1" d="M25.68,7.01h6.69c.12,0,.21.1.21.22v4.68c0,.12-.09.22-.21.22h-6.69v-5.13Z"/>
  <g>
    <path class="cls-2" d="M11.35,27.24v11.95h3.74v-11.95h-3.74ZM14.48,38.57h-2.51v-10.72h2.51v10.72Z"/>
    <path class="cls-2" d="M15.46,27.85h-4.48c-.17,0-.31-.14-.31-.31s.14-.31.31-.31h4.48c.17,0,.31.14.31.31s-.14.31-.31.31Z"/>
    <path class="cls-2" d="M15.46,39.19h-4.48c-.17,0-.31-.14-.31-.31s.14-.31.31-.31h4.48c.17,0,.31.14.31.31s-.14.31-.31.31Z"/>
    <path class="cls-2" d="M19.29,27.24v11.95h3.74v-11.95h-3.74ZM22.41,38.57h-2.51v-10.72h2.51v10.72Z"/>
    <path class="cls-2" d="M23.4,27.85h-4.48c-.17,0-.31-.14-.31-.31s.14-.31.31-.31h4.48c.17,0,.31.14.31.31s-.14.31-.31.31Z"/>
    <path class="cls-2" d="M23.4,39.19h-4.48c-.17,0-.31-.14-.31-.31s.14-.31.31-.31h4.48c.17,0,.31.14.31.31s-.14.31-.31.31Z"/>
    <path class="cls-2" d="M27.21,27.24v11.95h3.73v-11.95h-3.73ZM30.32,38.57h-2.5v-10.72h2.5v10.72Z"/>
    <path class="cls-2" d="M31.31,27.85h-4.48c-.17,0-.31-.14-.31-.31s.14-.31.31-.31h4.48c.17,0,.31.14.31.31s-.14.31-.31.31Z"/>
    <path class="cls-2" d="M31.31,39.19h-4.48c-.17,0-.31-.14-.31-.31s.14-.31.31-.31h4.48c.17,0,.31.14.31.31s-.14.31-.31.31Z"/>
    <path class="cls-2" d="M34.91,27.24v11.95h3.74v-11.95h-3.74ZM38.04,38.57h-2.51v-10.72h2.51v10.72Z"/>
    <path class="cls-2" d="M39.02,27.85h-4.48c-.17,0-.31-.14-.31-.31s.14-.31.31-.31h4.48c.17,0,.31.14.31.31s-.14.31-.31.31Z"/>
    <path class="cls-2" d="M39.02,39.19h-4.48c-.17,0-.31-.14-.31-.31s.14-.31.31-.31h4.48c.17,0,.31.14.31.31s-.14.31-.31.31Z"/>
  </g>
</svg>