<?xml version="1.0" encoding="UTF-8"?>
<svg id="Calque_1" data-name="Calque 1" xmlns="http://www.w3.org/2000/svg" viewBox="0 0 50 50">
  <defs>
    <style>
      .cls-1 {
        fill: #c9b292;
      }

      .cls-2 {
        fill: #093d4e;
      }
    </style>
  </defs>
  <path class="cls-1" d="M25,9.78c-4.98,0-9.01,4.03-9.01,9s4.03,9.01,9.01,9.01,9-4.03,9-9.01-4.03-9-9-9ZM29.58,16.14l-5.87,5.87-2.88-2.89c-.11-.11-.11-.28,0-.39.1-.1.28-.1.4,0l2.49,2.5,5.47-5.47c.11-.11.28-.11.39,0,.11.11.11.28,0,.39Z"/>
  <path class="cls-2" d="M37.78,17.05c-.19-.37-.39-.73-.46-1.07-.08-.37-.07-.77-.05-1.21.03-.61.05-1.23-.21-1.78-.27-.55-.78-.93-1.28-1.29-.35-.26-.67-.5-.9-.78-.23-.29-.39-.66-.57-1.06-.24-.56-.49-1.14-.96-1.52-.48-.39-1.1-.5-1.7-.61-.42-.08-.83-.16-1.17-.32-.32-.16-.62-.42-.95-.7-.47-.4-.95-.83-1.55-.96-.59-.13-1.19.04-1.77.19-.42.11-.83.22-1.2.22s-.79-.11-1.21-.22c-.58-.16-1.19-.32-1.76-.19-.62.14-1.09.56-1.56.96-.32.28-.62.54-.95.7-.34.17-.74.24-1.17.31-.6.12-1.21.23-1.69.62-.49.39-.73.96-.97,1.52-.17.39-.33.76-.57,1.06-.22.28-.55.52-.9.78-.5.36-1,.73-1.28,1.29-.26.55-.24,1.18-.21,1.78.02.43.04.85-.05,1.21-.08.35-.27.71-.47,1.07-.29.54-.6,1.11-.6,1.74s.3,1.19.6,1.75c.2.37.39.73.47,1.07.08.37.06.78.05,1.21-.03.61-.05,1.24.21,1.78.28.56.78.94,1.28,1.3.35.26.67.5.9.78.24.28.4.66.57,1.06.24.56.49,1.14.97,1.52.28.21.6.35.93.44.17.05.37.09.55.12.06.02.14.04.21.05.42.08.83.16,1.17.32.32.16.62.42.95.7.47.4.95.82,1.56.96.58.14,1.19-.03,1.76-.18.42-.12.83-.22,1.21-.22.3,0,.63.06.97.16.07.02.16.05.23.06.1.03.21.06.31.09.33.08.67.15,1,.15.16,0,.3-.02.46-.06.61-.14,1.08-.55,1.55-.96.32-.28.62-.54.95-.7.34-.17.74-.24,1.17-.32.16-.03.32-.06.48-.1.18-.04.36-.08.53-.15h0c.25-.08.48-.19.68-.36.48-.39.73-.96.96-1.52.17-.4.34-.77.57-1.06s.55-.52.9-.78c.5-.36,1.01-.73,1.28-1.3.27-.54.24-1.17.21-1.78-.02-.43-.03-.84.05-1.2.07-.35.27-.71.46-1.07.29-.55.6-1.11.6-1.75s-.3-1.19-.6-1.74ZM37.3,20.26c-.21.39-.42.79-.52,1.21-.09.44-.07.91-.06,1.36.02.56.04,1.09-.17,1.52-.21.43-.64.75-1.1,1.08-.36.27-.73.53-1.01.88s-.46.77-.63,1.18c-.23.52-.44,1.01-.81,1.3-.37.3-.9.39-1.45.51-.44.08-.9.17-1.3.36-.39.19-.74.49-1.07.78-.43.38-.84.73-1.31.84-.44.1-.96-.04-1.5-.18-.44-.12-.89-.24-1.35-.24s-.92.12-1.36.24c-.54.15-1.05.28-1.5.18-.47-.11-.88-.46-1.31-.84-.33-.29-.68-.59-1.07-.78-.4-.19-.86-.28-1.3-.37-.55-.1-1.07-.2-1.44-.5-.38-.29-.59-.78-.82-1.3-.17-.41-.36-.84-.63-1.18-.28-.35-.65-.62-1.01-.88-.46-.34-.89-.65-1.1-1.08-.2-.42-.18-.96-.16-1.52.02-.45.04-.92-.06-1.36-.1-.42-.31-.83-.52-1.21-.27-.51-.52-.98-.52-1.48s.26-.96.52-1.47c.21-.39.42-.79.52-1.21.1-.44.08-.91.06-1.36-.03-.57-.05-1.09.16-1.52.21-.43.64-.75,1.1-1.08.36-.27.73-.54,1.01-.88.28-.35.46-.78.64-1.18.22-.52.43-1.01.81-1.31.37-.29.89-.39,1.44-.5.45-.08.9-.17,1.3-.36.39-.19.74-.5,1.07-.78.43-.38.85-.73,1.31-.84.45-.1.96.04,1.5.17.44.12.9.25,1.36.25s.91-.13,1.35-.25c.54-.14,1.05-.28,1.5-.17.48.1.88.46,1.31.84.34.28.68.59,1.07.78.4.19.86.28,1.3.36.55.11,1.08.2,1.45.5.37.3.58.79.81,1.31.17.41.36.84.63,1.18.28.34.65.62,1.01.88.46.33.9.65,1.1,1.08.2.42.18.96.17,1.52-.02.45-.04.92.06,1.36.1.42.31.82.52,1.21.27.51.52.98.52,1.47s-.26.97-.52,1.48Z"/>
  <path class="cls-2" d="M20.94,44.18l-.11-.19-2.35-4.93-5.39,2.48-.32-.27.06-.22,4.87-11.66c.06-.14.22-.21.37-.15.14.06.21.22.15.37l-4.63,11.08,5.12-2.35.17.26,2.22,4.66,4.97-11.93c.06-.14.22-.21.37-.15.14.06.21.22.15.36l-5.25,12.6-.4.03Z"/>
  <path class="cls-2" d="M29.12,44.3h-.19s-.07-.19-.07-.19l-3.9-9.86c-.06-.14.01-.31.16-.36.14-.06.31.01.36.16l3.66,9.27,2.19-4.82.23-.09.12.06,4.84,2.15-4.48-11.07c-.06-.14.01-.31.15-.36.14-.06.31.01.36.15l4.79,11.86-.26.27-.18-.06-5.23-2.33-2.37,5.21h-.19Z"/>
</svg>