<?xml version="1.0" encoding="UTF-8"?>
<svg id="Calque_1" data-name="Calque 1" xmlns="http://www.w3.org/2000/svg" viewBox="0 0 50 50">
  <defs>
    <style>
      .cls-1 {
        fill: #093d4e;
      }
    </style>
  </defs>
  <g>
    <g>
      <ellipse class="cls-1" cx="35.48" cy="28.43" rx="8.36" ry="3.06"/>
      <path class="cls-1" d="M35.49,25c-4.97,0-8.73,1.48-8.73,3.43,0,.51.26,1,.73,1.42,1.32,1.2,4.33,2,7.99,2s6.67-.8,7.99-2c.41-.37.67-.79.73-1.23,0-.06,0-.13,0-.19,0-1.95-3.75-3.43-8.73-3.43ZM35.49,31.13c-4.71,0-7.99-1.42-7.99-2.7s3.28-2.69,7.99-2.69,7.99,1.42,7.99,2.69-3.28,2.7-7.99,2.7Z"/>
    </g>
    <path class="cls-1" d="M35.48,34.56c-4.97,0-8.72-1.47-8.72-3.43h.73c0,1.28,3.28,2.7,7.99,2.7s7.99-1.42,7.99-2.7h.73c0,1.95-3.75,3.43-8.72,3.43Z"/>
    <rect class="cls-1" x="26.76" y="28.43" width=".73" height="2.7"/>
    <rect class="cls-1" x="43.48" y="28.43" width=".73" height="2.7"/>
  </g>
  <g>
    <polygon class="cls-1" points="9.5 29.59 9.26 29.24 9.63 29.24 9.36 29 9.63 29.24 9.76 28.9 9.63 29.24 9.63 29.24 9.99 29.24 9.63 29.24 9.91 29.48 9.5 29.59"/>
    <polygon class="cls-1" points="19.92 29.46 19.92 29.46 19.92 28.73 19.92 29.46"/>
    <path class="cls-1" d="M15.04,35.01c-4.97,0-8.72-1.47-8.72-3.43,0-.35.12-.69.36-1.01l.59.44c-.14.2-.22.38-.22.58,0,1.28,3.28,2.7,7.99,2.7s7.99-1.42,7.99-2.7c0-.43-.37-.8-.67-1.03l.44-.58c.79.61.96,1.21.96,1.61,0,1.95-3.75,3.43-8.72,3.43Z"/>
    <path class="cls-1" d="M15.04,37.71c-4.97,0-8.72-1.47-8.72-3.43h.73c0,1.28,3.28,2.7,7.99,2.7s7.99-1.42,7.99-2.7h.73c0,1.95-3.75,3.43-8.72,3.43Z"/>
    <rect class="cls-1" x="6.32" y="31.58" width=".73" height="2.7"/>
    <rect class="cls-1" x="23.03" y="31.58" width=".73" height="2.7"/>
  </g>
  <g>
    <path class="cls-1" d="M14.51,30.19c-4.97,0-8.72-1.47-8.72-3.43,0-.91.8-1.73,2.31-2.36l.28.68c-1.18.49-1.86,1.11-1.86,1.68,0,1.28,3.28,2.7,7.99,2.7,3.59,0,6.77-.85,7.74-2.07l.55.48c-1.09,1.38-4.43,2.32-8.29,2.32Z"/>
    <path class="cls-1" d="M14.51,32.89c-4.97,0-8.72-1.47-8.72-3.43h.73c0,1.28,3.28,2.7,7.99,2.7s7.99-1.42,7.99-2.7h.73c0,1.95-3.75,3.43-8.72,3.43Z"/>
    <rect class="cls-1" x="5.79" y="26.76" width=".73" height="2.7"/>
    <rect class="cls-1" x="22.5" y="27.47" width=".73" height="1.99"/>
  </g>
  <g>
    <path class="cls-1" d="M24.01,20.91c-.05-.04-.12-.07-.18-.11l-.51-.29-.04.54v.05c-.08,1.28-3.31,2.65-7.99,2.65-2.81,0-5.38-.51-6.87-1.37l-.44-.25-.1.5v.14s0,.09,0,.14h0c.04.48.29.9.73,1.29,1.32,1.2,4.33,2,7.99,2s6.67-.8,7.99-2c.41-.37.67-.79.73-1.23,0-.06,0-.13,0-.19,0-.48-.23-1.18-1.31-1.85ZM16.6,25.44c-3.92,0-6.85-.98-7.73-2.04,1.62.67,3.94,1.07,6.42,1.07,4.37,0,7.84-1.16,8.58-2.77.47.34.72.71.72,1.06,0,1.28-3.28,2.69-7.99,2.69Z"/>
    <path class="cls-1" d="M16.6,28.88c-4.97,0-8.72-1.47-8.72-3.43h.73c0,1.28,3.28,2.7,7.99,2.7s7.99-1.42,7.99-2.7h.73c0,1.95-3.75,3.43-8.72,3.43Z"/>
    <rect class="cls-1" x="7.87" y="22.76" width=".73" height="2.7"/>
    <rect class="cls-1" x="24.59" y="22.76" width=".73" height="2.7"/>
  </g>
  <g>
    <path class="cls-1" d="M8.06,23.01c-1.23-.7-1.49-1.45-1.49-1.96h.73c0,.44.4.91,1.12,1.33l-.36.64Z"/>
    <polygon class="cls-1" points="24.01 21.17 23.29 21.06 24.02 21.04 24.01 21.17"/>
    <rect class="cls-1" x="6.57" y="18.34" width=".73" height="2.7"/>
    <polygon class="cls-1" points="24.01 21.05 23.28 21.05 23.28 18.41 24.01 18.34 24.01 21.05"/>
  </g>
  <g>
    <g>
      <path class="cls-1" d="M23.65,15.71s0,.05,0,.07c-.03.46-.33.89-.85,1.28-.31.22-.68.44-1.13.63-1.53.66-3.81,1.08-6.36,1.08-1.91,0-3.66-.24-5.07-.63-2-.56-3.29-1.44-3.29-2.43,0-1.69,3.74-3.06,8.36-3.06s8.36,1.37,8.36,3.06Z"/>
      <path class="cls-1" d="M15.29,12.29c-4.97,0-8.72,1.47-8.72,3.43,0,.51.25.98.73,1.41.6.54,1.56,1.01,2.83,1.37,1.5.42,3.28.64,5.16.64,2.52,0,4.89-.4,6.51-1.11.46-.19.86-.42,1.2-.67.1-.07.18-.14.27-.21h0c.46-.42.7-.86.72-1.28v-.07s.02-.08.02-.08c0-2.15-4.44-3.43-8.73-3.43ZM23.29,15.78s0,.05,0,.06c-.05.31-.28.62-.7.93-.29.21-.65.41-1.07.59-1.53.67-3.8,1.05-6.22,1.05-1.82,0-3.53-.21-4.96-.62-1.87-.52-3.03-1.31-3.03-2.08,0-1.28,3.29-2.7,7.99-2.7s7.99,1.42,7.99,2.7h.37l-.37.05v.02Z"/>
    </g>
    <path class="cls-1" d="M15.29,21.84c-.12,0-.24,0-.36,0-.1,0-.22,0-.34,0-.24,0-.49-.02-.73-.03-.23-.01-.46-.03-.68-.05-.14-.01-.28-.03-.42-.04-.13-.01-.27-.03-.4-.05-.09-.01-.19-.02-.28-.04-.15-.02-.31-.05-.47-.08-.27-.04-.53-.1-.79-.16-.11-.02-.24-.05-.36-.09-.11-.03-.22-.05-.34-.09-.12-.03-.25-.07-.38-.11-.18-.05-.36-.12-.53-.18-.08-.03-.17-.06-.26-.1-.18-.07-.37-.16-.55-.24-.1-.05-.2-.1-.29-.16l.09-.37-.18.32c-.06-.04-.12-.07-.18-.12-.06-.03-.15-.1-.23-.16-.06-.03-.14-.1-.23-.18-.06-.04-.14-.11-.2-.18-.05-.04-.11-.11-.17-.18-.05-.06-.1-.13-.14-.19l-.07-.11s-.02-.03-.03-.05c-.12-.24-.17-.39-.19-.54-.01-.06-.02-.14-.02-.23h.73s0,.08.01.12c.01.09.04.17.09.28l.09.15s.06.08.08.11c.04.04.07.09.12.13.06.06.1.1.15.14.08.07.12.11.17.14.09.07.15.11.21.15.07.05.11.07.15.1l.1.06c.07.04.16.09.24.13.16.08.32.16.5.22.08.03.15.06.23.09.17.06.34.12.51.17.12.04.23.07.35.11.12.03.22.06.33.09.12.03.22.06.33.08.26.06.5.11.76.15.16.03.31.05.47.07.09.02.17.03.25.04.16.03.27.04.39.05.14.02.27.03.41.04.22.02.44.04.66.05.24.02.47.03.71.03.11,0,.21,0,.33,0,.12,0,.23,0,.34,0,.28,0,.55,0,.83-.02.47-.02.93-.05,1.37-.09l.95-.12c.37-.05.72-.12,1.05-.19.15-.03.3-.06.43-.1.18-.04.35-.09.51-.14l.06-.02c.15-.04.29-.09.42-.14.12-.04.21-.07.29-.11.13-.05.22-.09.31-.13.22-.09.41-.19.59-.29.09-.04.13-.07.17-.1.08-.05.12-.07.16-.1.08-.05.11-.08.15-.1.07-.05.11-.08.15-.12.07-.05.09-.08.1-.09.08-.07.11-.11.15-.16l.19-.29c.03-.05.04-.09.06-.14.02-.07.04-.14.04-.2l.74-.05-.02.17s-.02.19-.06.32c-.03.08-.06.16-.1.24-.04.07-.07.13-.11.18,0,0-.04.06-.08.1,0,.01-.05.07-.1.13-.05.06-.11.13-.18.2-.02.03-.08.09-.16.14-.03.03-.08.07-.14.11-.06.05-.13.1-.21.15-.03.03-.11.08-.19.12-.04.03-.13.08-.22.13-.17.1-.39.22-.64.32-.1.04-.21.09-.33.13-.09.04-.2.08-.33.12-.14.06-.32.11-.51.17h-.05c-.16.06-.32.1-.49.15-.14.04-.3.07-.46.11-.34.08-.71.15-1.09.2l-.99.13c-.46.04-.93.08-1.42.1-.28.01-.57.02-.86.02Z"/>
    <rect class="cls-1" x="6.57" y="15.71" width=".73" height="2.7"/>
    <polygon class="cls-1" points="23.28 18.42 23.28 15.79 24.01 15.71 24.01 18.34 23.28 18.42"/>
  </g>
</svg>