<?xml version="1.0" encoding="UTF-8"?>
<svg id="Calque_1" data-name="Calque 1" xmlns="http://www.w3.org/2000/svg" viewBox="0 0 50 50">
  <defs>
    <style>
      .cls-1 {
        fill: #093d4e;
      }
    </style>
  </defs>
  <path class="cls-1" d="M39.18,6.9c-5.06-.6-9.65,3.03-10.23,8.09-.29,2.58.5,5.04,2.02,6.91l-1.15,3.7,3.39-1.73c1.12.71,2.43,1.18,3.84,1.35,5.06.59,9.64-3.04,10.22-8.1.6-5.06-3.03-9.64-8.09-10.22ZM34.94,17.27c-.58,0-1.05-.47-1.05-1.06s.47-1.05,1.05-1.05,1.05.47,1.05,1.05-.47,1.06-1.05,1.06ZM38.43,17.27c-.58,0-1.05-.47-1.05-1.06s.47-1.05,1.05-1.05,1.06.47,1.06,1.05-.48,1.06-1.06,1.06ZM42.02,17.27c-.58,0-1.05-.47-1.05-1.06s.47-1.05,1.05-1.05,1.05.47,1.05,1.05-.47,1.06-1.05,1.06Z"/>
  <path class="cls-1" d="M18.23,18.57c-.25-2.08-1.28-3.92-2.91-5.22-1.64-1.3-3.67-1.87-5.74-1.64-2.08.24-3.93,1.28-5.23,2.91-1.29,1.64-1.87,3.67-1.63,5.74.24,2.08,1.27,3.92,2.9,5.22s3.67,1.87,5.75,1.64c1.1-.13,2.13-.48,3.08-1.04l3.31,1.69-1.13-3.61c1.27-1.63,1.84-3.65,1.6-5.7ZM14.42,25.39l-.17.11c-.9.56-1.89.92-2.96,1.04-1.88.22-3.75-.31-5.24-1.49-1.49-1.18-2.42-2.87-2.65-4.75-.22-1.89.3-3.75,1.49-5.24,1.18-1.5,2.87-2.43,4.75-2.65.28-.03.56-.05.84-.05,1.6,0,3.13.53,4.4,1.53,1.49,1.18,2.43,2.87,2.65,4.76.22,1.92-.33,3.81-1.56,5.32l-.12.15.74,2.39-2.18-1.12Z"/>
  <path class="cls-1" d="M15.93,29.73c-1.9,0-3.45,1.54-3.45,3.45s1.55,3.44,3.45,3.44,3.45-1.54,3.45-3.44-1.55-3.45-3.45-3.45ZM15.93,35.94c-1.52,0-2.76-1.24-2.76-2.76s1.24-2.76,2.76-2.76,2.76,1.24,2.76,2.76-1.23,2.76-2.76,2.76Z"/>
  <path class="cls-1" d="M19.35,35.74l-.25-.16-.19.23c-.75.85-1.84,1.34-2.98,1.34s-2.22-.49-2.98-1.34l-.19-.23-.25.16c-1.9,1.19-3.03,3.23-3.03,5.47,0,.57.07,1.14.23,1.69l.07.26h12.3l.06-.26c.16-.55.23-1.12.23-1.69,0-2.24-1.13-4.28-3.03-5.47ZM21.54,42.47h-11.23c-.09-.41-.14-.84-.14-1.26,0-1.9.91-3.65,2.46-4.72.87.86,2.05,1.35,3.29,1.35s2.42-.49,3.29-1.35c1.55,1.07,2.46,2.82,2.46,4.72,0,.42-.05.85-.14,1.26Z"/>
  <circle class="cls-1" cx="31.4" cy="33.18" r="3.1" transform="translate(-4.91 5.46) rotate(-9.22)"/>
  <path class="cls-1" d="M37.5,41.21c0,.56-.07,1.09-.22,1.61h-11.77c-.14-.51-.22-1.05-.22-1.61,0-2.18,1.14-4.09,2.86-5.17.79.9,1.95,1.46,3.24,1.46s2.45-.57,3.24-1.46c1.72,1.08,2.86,2.99,2.86,5.17Z"/>
</svg>