<?xml version="1.0" encoding="UTF-8"?>
<svg id="Calque_1" data-name="Calque 1" xmlns="http://www.w3.org/2000/svg" viewBox="0 0 50 50">
  <defs>
    <style>
      .cls-1 {
        fill: #c9b292;
      }

      .cls-2 {
        fill: #093d4e;
      }
    </style>
  </defs>
  <g>
    <path class="cls-2" d="M19.98,32.96c0-.23,0-.46-.04-.68l2.13-1.32-1.03-2.35-2.41.55c-.28-.35-.6-.67-.95-.95l.57-2.44-2.39-.94-1.31,2.09c-.44-.05-.89-.05-1.34,0l-1.32-2.13-2.34,1.02.54,2.41c-.35.28-.66.6-.95.96l-2.44-.58-.93,2.39,2.09,1.31c-.02.22-.04.44-.04.66s.02.45.04.68l-2.13,1.32,1.03,2.35,2.41-.55c.28.35.6.67.95.95l-.57,2.44,2.39.94,1.31-2.09c.44.06.89.05,1.34,0l1.32,2.13,2.34-1.03-.54-2.41c.35-.28.66-.6.95-.95l2.44.57.93-2.39-2.09-1.31c.03-.21.04-.43.04-.65ZM21.18,35.21l-.51,1.29-2.3-.53-.14.18c-.32.43-.7.81-1.12,1.13l-.18.13.51,2.29-1.26.55-1.25-2-.23.04c-.52.07-1.07.07-1.59,0l-.22-.04-1.25,1.98-1.29-.51.54-2.3-.19-.14c-.42-.31-.81-.69-1.12-1.12l-.14-.18-2.28.52-.56-1.27,2-1.25-.03-.22c-.05-.27-.06-.54-.06-.81s.02-.52.06-.78l.04-.23-1.98-1.25.51-1.28,2.3.53.14-.18c.32-.43.7-.81,1.12-1.13l.18-.14-.51-2.28,1.26-.55,1.25,2,.23-.04c.52-.07,1.07-.07,1.59,0l.22.03,1.25-1.98,1.29.51-.53,2.3.18.14c.43.31.81.69,1.12,1.12l.14.18,2.28-.52.56,1.27-2,1.24.03.23c.05.27.06.53.06.81,0,.26-.02.52-.06.78l-.04.23,1.98,1.24Z"/>
    <path class="cls-1" d="M10.78,32.96c0-1.73,1.4-3.13,3.13-3.13s3.13,1.4,3.13,3.13-1.4,3.13-3.13,3.13-3.13-1.4-3.13-3.13Z"/>
  </g>
  <g>
    <path class="cls-2" d="M20.52,14.96c0-.16,0-.3-.02-.45l1.58-.98-.82-1.86-1.78.4c-.18-.22-.39-.43-.62-.62l.42-1.81-1.9-.74-.96,1.54c-.29-.03-.6-.03-.88,0l-.98-1.57-1.86.81.39,1.78c-.22.18-.43.39-.62.62l-1.81-.42-.74,1.89,1.54.97c0,.14-.02.28-.02.43s0,.29.03.44l-1.58.98.82,1.86,1.77-.4c.19.23.39.43.62.62l-.42,1.81,1.89.74.97-1.54c.28.03.59.03.88,0l.97,1.57,1.86-.81-.4-1.78c.23-.18.43-.39.62-.62l1.81.42.73-1.89-1.54-.96c.02-.15.02-.29.02-.43ZM21.18,16.65l-.3.79-1.66-.39-.14.18c-.23.31-.5.58-.8.81l-.18.13.38,1.65-.78.34-.9-1.44-.23.03c-.37.06-.76.06-1.13,0l-.23-.04-.9,1.43-.79-.31.39-1.65-.18-.14c-.3-.23-.58-.5-.8-.8l-.14-.18-1.65.38-.34-.78,1.45-.9-.04-.23c-.03-.18-.05-.38-.05-.57s.02-.38.05-.56l.03-.23-1.43-.9.31-.79,1.66.39.14-.18c.22-.3.5-.58.8-.81l.18-.13-.38-1.65.77-.34.9,1.44.23-.03c.38-.06.76-.06,1.14,0l.22.04.9-1.43.8.31-.4,1.66.18.13c.31.23.58.5.81.8l.14.18,1.65-.38.34.78-1.45.9.04.23c.03.18.04.38.04.58,0,.18,0,.38-.04.55l-.04.23,1.43.9Z"/>
    <circle class="cls-1" cx="15.98" cy="14.96" r="1.57"/>
  </g>
  <g>
    <path class="cls-2" d="M44.08,28.24l.18-3.26-3.22-.81c-.06-.31-.15-.62-.25-.92-.1-.31-.22-.62-.37-.92l2.17-2.59-2.18-2.43-2.85,1.71c-.54-.36-1.12-.65-1.73-.87l-.29-3.36-3.27-.18-.8,3.22c-.31.06-.62.14-.93.24-.31.1-.62.23-.92.37l-2.58-2.17-2.44,2.18,1.71,2.85c-.36.54-.65,1.12-.87,1.74l-3.36.29-.18,3.26,3.22.8c.06.32.15.62.25.93.1.31.22.62.36.92l-2.17,2.59,2.18,2.43,2.85-1.71c.54.36,1.12.65,1.74.87l.29,3.36,3.26.18.81-3.22c.31-.06.62-.15.93-.24.31-.11.62-.23.92-.37l2.58,2.17,2.43-2.18-1.71-2.85c.36-.54.65-1.12.87-1.74l3.36-.29ZM40.13,28.09c-.23.71-.56,1.36-.98,1.97l-.13.18,1.64,2.74-1.55,1.39-2.48-2.07-.2.1c-.33.17-.68.31-1.03.42s-.7.2-1.06.27l-.22.04-.77,3.1-2.09-.11-.28-3.22-.21-.07c-.7-.23-1.36-.56-1.97-.98l-.18-.14-2.74,1.64-1.39-1.55,2.07-2.47-.1-.2c-.17-.34-.31-.68-.42-1.04-.11-.34-.2-.69-.27-1.05l-.04-.22-3.1-.78.12-2.08,3.21-.28.07-.22c.23-.7.56-1.36.99-1.96l.13-.18-1.64-2.74,1.55-1.4,2.47,2.08.2-.1c.34-.17.68-.31,1.04-.42.34-.12.7-.2,1.05-.27l.23-.04.77-3.1,2.08.12.28,3.22.22.07c.7.23,1.36.56,1.96.98l.18.13,2.75-1.64,1.39,1.55-2.08,2.47.1.2c.17.33.31.68.43,1.03.11.34.19.7.26,1.06l.04.22,3.1.78-.12,2.08-3.22.28-.07.21Z"/>
    <path class="cls-1" d="M29.05,27.1c-.73-2.23.48-4.62,2.71-5.35,2.23-.73,4.62.48,5.35,2.71.73,2.23-.48,4.62-2.71,5.35-2.23.73-4.62-.48-5.35-2.71Z"/>
  </g>
</svg>