<?xml version="1.0" encoding="UTF-8"?>
<svg id="Calque_1" data-name="Calque 1" xmlns="http://www.w3.org/2000/svg" viewBox="0 0 50 50">
  <defs>
    <style>
      .cls-1 {
        fill: #093d4e;
      }
    </style>
  </defs>
  <path class="cls-1" d="M21.92,28.28l.47.68h5.11l.47-.68h-6.04ZM41.31,28.28h-12.52l-.47.68h12.45l2.37,10.89H6.83l1.97-10.89h12.76l-.47-.68h-12.86l-2.21,12.24h37.97l-2.67-12.24Z"/>
  <path class="cls-1" d="M33.3,16.93c-.49-4.16-4-7.36-8.18-7.45h-.17c-2.22,0-4.31.85-5.89,2.41-1.63,1.6-2.53,3.73-2.53,6.01,0,1.56.44,3.1,1.28,4.45l4.11,5.93.47.68,2.56,3.7,2.54-3.7.47-.68,3.86-5.6c.4-.57.73-1.17.98-1.8h0c.48-1.29.64-2.61.49-3.94ZM24.95,22.54c-2.56,0-4.64-2.08-4.64-4.64s2.08-4.64,4.64-4.64,4.64,2.08,4.64,4.64-2.08,4.64-4.64,4.64Z"/>
</svg>