<?xml version="1.0" encoding="UTF-8"?>
<svg id="Calque_1" data-name="Calque 1" xmlns="http://www.w3.org/2000/svg" viewBox="0 0 50 50">
  <defs>
    <style>
      .cls-1 {
        fill: #093d4e;
      }
    </style>
  </defs>
  <path class="cls-1" d="M35.82,39.22h0s-.09,0-.14,0H14.33c-.09,0-.17,0-.27.02-1.63.13-2.92,1.5-2.92,3.17v1.44h27.71v-1.44c0-1.72-1.35-3.1-3.04-3.18ZM37.71,42.68H12.29v-.28c0-1.12.91-2.04,2.04-2.04h21.34c1.12,0,2.04.92,2.04,2.04v.28Z"/>
  <path class="cls-1" d="M11.14,6.16v1.46c0,1.67,1.29,3.04,2.92,3.17.09.02.17.02.27.02h21.34s.09,0,.14,0h0c1.69-.07,3.04-1.46,3.04-3.18v-1.46H11.14ZM37.71,7.62c0,1.12-.92,2.04-2.04,2.04H14.33c-1.13,0-2.04-.92-2.04-2.04v-.31h25.42v.31Z"/>
  <path class="cls-1" d="M35.81,39.78h-1.15v-7.07c0-2.16-2.78-5.55-6.92-7.16l-1.38-.54,1.38-.54c4.14-1.61,6.92-5.01,6.92-7.16v-7.07h1.15v7.07c0,2.61-2.8,5.88-6.44,7.7,3.65,1.82,6.44,5.08,6.44,7.7v7.07Z"/>
  <path class="cls-1" d="M15.21,39.78h-1.15v-7.07c0-2.62,2.79-5.88,6.44-7.7-3.64-1.82-6.44-5.08-6.44-7.7v-7.07h1.15v7.07c0,2.16,2.78,5.55,6.91,7.16l1.38.54-1.38.54c-4.13,1.61-6.91,5-6.91,7.16v7.07Z"/>
  <path class="cls-1" d="M33.56,38.23c-2.68-2.74-7.33-4.38-8.67-4.38-1.2,0-6.61,2.2-8.46,4.39h17.13Z"/>
  <path class="cls-1" d="M30.11,18.96c-1.39,1.64-4.38,3.04-5.18,3.04-.72,0-3.95-1.53-5.05-3.05h10.23Z"/>
</svg>