<?xml version="1.0" encoding="UTF-8"?>
<svg id="Calque_1" data-name="Calque 1" xmlns="http://www.w3.org/2000/svg" viewBox="0 0 50 50">
  <defs>
    <style>
      .cls-1 {
        fill: #c9b292;
      }

      .cls-2 {
        fill: #093d4e;
      }
    </style>
  </defs>
  <path class="cls-2" d="M11.04,6.38v37.25h27.92V6.38H11.04ZM38.21,42.89H11.78V7.11h26.44v35.78Z"/>
  <path class="cls-1" d="M31.1,15.8c-2.25,0-4.09,1.84-4.09,4.09s1.84,4.1,4.09,4.1,4.1-1.84,4.1-4.1-1.84-4.09-4.1-4.09ZM30.15,21.93l-1.53-1.67.54-.51,1.03,1.12,2.88-2.76.51.53-3.44,3.28Z"/>
  <path class="cls-1" d="M31.1,28.93c-2.25,0-4.09,1.84-4.09,4.1s1.84,4.09,4.09,4.09,4.1-1.84,4.1-4.09-1.84-4.1-4.1-4.1ZM32.98,34.68l-.52.51-1.41-1.44-1.41,1.44-.52-.51,1.42-1.45-1.42-1.46.52-.51,1.41,1.44,1.41-1.44.52.51-1.42,1.46,1.42,1.45Z"/>
  <rect class="cls-2" x="14.91" y="16.84" width="8.28" height=".73"/>
  <rect class="cls-2" x="14.91" y="19.57" width="8.28" height=".73"/>
  <rect class="cls-2" x="14.91" y="22.2" width="8.28" height=".74"/>
  <rect class="cls-2" x="14.91" y="30.12" width="8.28" height=".74"/>
  <rect class="cls-2" x="14.91" y="32.85" width="8.28" height=".74"/>
  <rect class="cls-2" x="14.91" y="35.58" width="8.28" height=".74"/>
  <polygon class="cls-2" points="31.97 6.92 31.87 7.11 30.64 9.43 19.39 9.43 18.12 7.11 18.02 6.92 18.66 6.57 18.96 7.11 19.83 8.7 30.2 8.7 31.04 7.11 31.32 6.57 31.97 6.92"/>
</svg>