<?xml version="1.0" encoding="UTF-8"?>
<svg id="Calque_1" data-name="Calque 1" xmlns="http://www.w3.org/2000/svg" viewBox="0 0 50 50">
  <defs>
    <style>
      .cls-1 {
        fill: #093d4e;
      }
    </style>
  </defs>
  <g>
    <path class="cls-1" d="M21.38,18.74c.13.18.09.44-.1.57-1.69,1.2-2.69,3.15-2.69,5.22,0,.23-.19.41-.41.41s-.41-.18-.41-.41c0-2.34,1.13-4.54,3.03-5.89.19-.13.45-.09.58.1Z"/>
    <polygon class="cls-1" points="26.6 25.29 27.22 25.82 25.41 27.92 25.41 32.21 24.58 32.21 24.58 27.9 22.96 25.81 23.62 25.3 25.01 27.12 26.6 25.29"/>
    <path class="cls-1" d="M24.99,14.64c-5.45,0-9.88,4.43-9.88,9.88,0,3.64,1.97,6.82,4.89,8.54.13.08.27.15.41.23.29.15.59.29.89.41h7.39c.3-.12.59-.26.88-.4h0c.14-.08.27-.15.41-.23,0,0,.01,0,.01,0,2.92-1.72,4.89-4.89,4.89-8.54,0-5.45-4.43-9.88-9.89-9.88ZM29.47,32.87h-8.95c-2.97-1.59-4.99-4.74-4.99-8.35,0-5.21,4.24-9.47,9.47-9.47s9.48,4.26,9.48,9.47c0,3.61-2.03,6.76-5.01,8.35Z"/>
    <path class="cls-1" d="M25,14.23c-5.68,0-10.3,4.62-10.3,10.29,0,3.87,2.14,7.25,5.3,9.01.14.08.28.15.41.22.14.07.28.13.42.2v-.25h1.81c-.43-.11-.85-.25-1.25-.41-.3-.12-.59-.26-.87-.42-2.97-1.59-4.99-4.74-4.99-8.35,0-5.21,4.24-9.47,9.47-9.47s9.48,4.26,9.48,9.47c0,3.61-2.03,6.76-5.01,8.35-.27.16-.57.3-.86.42-.41.16-.82.3-1.25.41h1.8v.25c.14-.07.27-.13.41-.2.14-.07.28-.14.42-.21,3.16-1.76,5.31-5.14,5.31-9.02,0-5.67-4.63-10.29-10.3-10.29Z"/>
  </g>
  <g>
    <path class="cls-1" d="M20.41,33.29v2.74h9.16v-2.74h-9.16ZM29.16,33.7v1.92h-8.33v-1.92h8.33Z"/>
    <path class="cls-1" d="M20,32.87v3.57h9.99v-3.57h-9.99ZM29.16,33.7v1.92h-8.33v-1.92h8.33Z"/>
  </g>
  <g>
    <path class="cls-1" d="M20.41,36.03v2.74h9.16v-2.74h-9.16ZM29.16,38.36h-8.33v-1.92h8.33v1.92Z"/>
    <path class="cls-1" d="M20,35.62v3.56h9.99v-3.56h-9.99ZM29.16,38.36h-8.33v-1.92h8.33v1.92Z"/>
  </g>
  <g>
    <path class="cls-1" d="M20.42,38.77h9.16v.18c0,1.41-1.14,2.55-2.55,2.55h-4.05c-1.41,0-2.55-1.14-2.55-2.55v-.18h0Z"/>
    <path class="cls-1" d="M20,38.36v.6c0,.07,0,.14.01.22.1,1.43,1.23,2.58,2.64,2.72h.01c.11.01.21.02.31.02h4.05c.1,0,.2-.01.3-.02h.01c1.42-.14,2.55-1.29,2.65-2.72.01-.08.01-.15.01-.22v-.6h-9.99ZM27.02,41.1h-4.05c-1.1,0-2.01-.84-2.13-1.92h8.31c-.11,1.08-1.03,1.92-2.13,1.92Z"/>
  </g>
  <path class="cls-1" d="M25,11.78c-.23,0-.41-.18-.41-.41v-4.84c0-.23.18-.41.41-.41s.41.18.41.41v4.84c0,.23-.18.41-.41.41Z"/>
  <path class="cls-1" d="M17.26,14.29c-.13,0-.25-.06-.33-.17l-2.85-3.92c-.13-.18-.09-.44.09-.57.18-.13.44-.09.57.09l2.85,3.92c.13.18.09.44-.09.57-.07.05-.16.08-.24.08Z"/>
  <path class="cls-1" d="M12.48,20.87s-.08,0-.13-.02l-4.6-1.49c-.22-.07-.33-.3-.26-.52.07-.22.3-.33.52-.26l4.6,1.49c.22.07.33.3.26.52-.06.17-.22.28-.39.28Z"/>
  <path class="cls-1" d="M7.88,30.51c-.17,0-.33-.11-.39-.28-.07-.22.05-.45.26-.52l4.6-1.5c.22-.07.45.05.52.26.07.22-.05.45-.26.52l-4.6,1.5s-.09.02-.13.02Z"/>
  <path class="cls-1" d="M42.12,30.51s-.09,0-.13-.02l-4.6-1.5c-.22-.07-.33-.3-.26-.52.07-.22.3-.33.52-.26l4.6,1.5c.22.07.33.3.26.52-.06.17-.22.28-.39.28Z"/>
  <path class="cls-1" d="M37.52,20.87c-.17,0-.33-.11-.39-.28-.07-.22.05-.45.26-.52l4.6-1.49c.22-.07.45.05.52.26.07.22-.05.45-.26.52l-4.6,1.49s-.08.02-.13.02Z"/>
  <path class="cls-1" d="M32.74,14.29c-.08,0-.17-.03-.24-.08-.18-.13-.22-.39-.09-.57l2.85-3.91c.13-.18.39-.22.58-.09.18.13.22.39.09.57l-2.85,3.91c-.08.11-.21.17-.33.17Z"/>
  <path class="cls-1" d="M21.28,19.31c-1.69,1.2-2.69,3.15-2.69,5.22,0,.23-.19.41-.41.41s-.41-.18-.41-.41c0-2.34,1.13-4.54,3.03-5.89.19-.13.45-.09.58.1.13.18.09.44-.1.57Z"/>
  <rect class="cls-1" x="24.58" y="27.77" width=".83" height="4.44"/>
  <polygon class="cls-1" points="27.22 25.82 25.41 27.92 24.98 28.42 24.58 27.9 22.96 25.81 23.62 25.3 25.01 27.12 26.6 25.29 27.22 25.82"/>
  <g>
    <path class="cls-1" d="M23.03,41.51c0,1.08.88,1.96,1.96,1.96s1.96-.88,1.96-1.96h-3.92Z"/>
    <path class="cls-1" d="M24.99,43.89c-1.31,0-2.37-1.06-2.37-2.37h.82c0,.85.7,1.55,1.55,1.55s1.55-.7,1.55-1.55h.82c0,1.31-1.06,2.37-2.37,2.37Z"/>
  </g>
</svg>