<?xml version="1.0" encoding="UTF-8"?>
<svg id="Calque_1" data-name="Calque 1" xmlns="http://www.w3.org/2000/svg" viewBox="0 0 50 50">
  <defs>
    <style>
      .cls-1 {
        fill: #c9b292;
      }

      .cls-2 {
        fill: #093d4e;
      }
    </style>
  </defs>
  <path class="cls-1" d="M24.01,24.59l1-5.4s0,0,0,0l1.15,5.4-1,2.63-1.16-2.63Z"/>
  <path class="cls-1" d="M26.08,19.34h-2.07c-.18,0-.32-.14-.32-.32s.14-.32.32-.32h2.07c.18,0,.32.14.32.32s-.14.32-.32.32Z"/>
  <path class="cls-2" d="M33.78,20.31c-.59-.86-1.38-1.27-1.82-1.44l-2.93-.96c-.32-.1-.67.06-.79.39l-2.18,5.72v.02s-.97,2.53-.97,2.53l-.95-2.59v-.04s-2.09-5.67-2.09-5.67c-.11-.29-.41-.47-.72-.43-1.2.17-2.32.51-3.33,1.05-1.15.61-1.53,1.13-1.66,1.3-.46.62-.72,1.38-.76,2.22v10.06c0,.71.39,1.3.95,1.64,0,0,0,0,0,0,.19.11.4.18.63.22h0c.1.02.2.03.3.03h1.71c.08,0,.14.06.15.14l.02,5.95c0,.89.73,1.63,1.63,1.63h8.14c.9,0,1.63-.73,1.63-1.64v-5.87c0-.09.07-.17.17-.17h1.64c.08,0,.17,0,.26-.02.23-.03.44-.1.64-.2.59-.32.99-.95.99-1.67v-10.12c-.02-.52-.16-1.3-.69-2.07ZM33.82,32.5c0,.69-.56,1.26-1.25,1.26h-1.64c-.45,0-.81.36-.81.81v5.87c0,.55-.45.99-.99.99h-8.14c-.55,0-.99-.44-1-.99l-.02-5.94c0-.42-.35-.77-.78-.77h-1.71c-.7,0-1.26-.57-1.26-1.26v-10.04c.03-.49.16-1.2.63-1.86.11-.15.42-.58,1.44-1.11.95-.5,1.98-.83,3.14-.96l3.24,8.85c.06.17.2.28.4.28.17,0,.33-.1.39-.27l3.35-8.82,2.91.94c.36.14,1.02.49,1.52,1.2.44.65.55,1.3.57,1.72v10.11Z"/>
  <circle class="cls-2" cx="25.09" cy="12.38" r="4.45"/>
  <path class="cls-2" d="M13.7,10.05c-2.23,0-4.04,1.81-4.04,4.04s1.81,4.04,4.04,4.04,4.04-1.81,4.04-4.04-1.81-4.04-4.04-4.04ZM13.7,17.49c-1.87,0-3.4-1.52-3.4-3.4s1.53-3.4,3.4-3.4,3.4,1.52,3.4,3.4-1.52,3.4-3.4,3.4Z"/>
  <path class="cls-2" d="M15.81,40.27h-5.01c-.75,0-1.36-.61-1.36-1.36v-6.6l-1.03-.05c-.97,0-1.76-.79-1.76-1.76v-7.84c0-.54.15-1.05.44-1.49.32-.48.71-.9,1.17-1.24.92-.68,1.89-.88,2.53-.93.32-.02.59.15.7.44l1.6,4.07.42-3.74.64.07-.58,5.23-.51.07-.1-.24-2.06-5.23c-.62,0-1.46.18-2.26.78-.4.29-.74.65-1.02,1.07-.22.33-.33.72-.33,1.13v7.84c0,.62.5,1.12,1.12,1.12h.98c.38,0,.69.31.69.69v6.6c0,.4.32.72.72.72h5.01c.4,0,.72-.32.72-.72v-5h.64v5c0,.75-.61,1.36-1.36,1.36Z"/>
  <path class="cls-2" d="M14.3,20.07h-1.05c-.18,0-.32-.14-.32-.32s.14-.32.32-.32h1.05c.18,0,.32.14.32.32s-.14.32-.32.32Z"/>
  <g>
    <path class="cls-2" d="M36.3,10.05c-2.22,0-4.04,1.81-4.04,4.04s1.82,4.04,4.04,4.04,4.04-1.81,4.04-4.04-1.81-4.04-4.04-4.04ZM36.3,17.49c-1.87,0-3.4-1.52-3.4-3.4s1.52-3.4,3.4-3.4,3.4,1.52,3.4,3.4-1.53,3.4-3.4,3.4Z"/>
    <path class="cls-2" d="M39.2,40.27h-5.01c-.75,0-1.36-.61-1.36-1.36v-5h.64v5c0,.4.32.72.72.72h5.01c.4,0,.72-.32.72-.72v-6.6c0-.38.31-.69.69-.69h.98c.62,0,1.12-.5,1.12-1.12v-7.84c0-.41-.12-.8-.33-1.13-.28-.42-.62-.78-1.02-1.07-.8-.59-1.64-.77-2.2-.81l-2.21,5.49-.5-.05-.05-.26-.55-4.98.64-.07.42,3.74,1.6-4.07c.11-.29.39-.46.71-.44.64.05,1.61.25,2.53.93.46.34.86.76,1.17,1.24.29.43.44.95.44,1.49v7.84c0,.97-.79,1.76-1.76,1.76h-.98l-.05,6.66c0,.75-.61,1.36-1.36,1.36Z"/>
    <path class="cls-2" d="M36.75,20.07h-1.05c-.18,0-.32-.14-.32-.32s.14-.32.32-.32h1.05c.18,0,.32.14.32.32s-.14.32-.32.32Z"/>
  </g>
</svg>