<?xml version="1.0" encoding="UTF-8"?>
<svg id="Calque_1" data-name="Calque 1" xmlns="http://www.w3.org/2000/svg" viewBox="0 0 50 50">
  <defs>
    <style>
      .cls-1 {
        fill: #093d4e;
      }
    </style>
  </defs>
  <path class="cls-1" d="M35.74,15.43c1.22.02,1.84,1.04,1.84,1.8s-.92,1.84-.92,1.84c-.54.99.61.99.61.99h5.75V7.56c0-1.17-.94-2.11-2.11-2.11h-12.45v5.8s.02.68-.59.59c-.12-.02-.23-.07-.33-.14-.42-.31-2.19-1.38-3.17-.03-.48.66-.48,1.58,0,2.24.99,1.33,2.74.22,3.16-.09.1-.07.21-.12.33-.14.61-.09.59.59.59.59v5.8h5.75s1.15,0,.61-.99c0,0-.92-1.08-.92-1.84s.62-1.83,1.84-1.8Z"/>
  <path class="cls-1" d="M21.55,29.13h-5.36c-.08,0-.75.03-1.04.51-.12.2-.2.56.13,1.15.31.38.82,1.14.82,1.59,0,.35-.17.75-.45,1.03-.27.26-.62.39-1,.38-.41.03-.72-.12-.98-.38-.28-.28-.45-.68-.45-1.03,0-.45.51-1.21.87-1.65.28-.52.19-.88.07-1.08-.28-.48-.96-.5-1.03-.5h-6.15v12.45c0,1.64,1.32,2.96,2.95,2.96h12.4v-6.19c0-.08,0-.51-.31-.79-.14-.12-.36-.25-.73-.2-.17.03-.35.1-.51.22-.18.13-1.8,1.28-2.62.17-.39-.51-.39-1.25,0-1.77.2-.28.46-.44.77-.49.68-.11,1.48.33,1.85.6.16.12.32.19.51.22.37.05.59-.08.73-.2.31-.28.31-.71.31-.78v-6.19h-.79ZM21.55,35.33c0,.07-.03.17-.14.19-.05,0-.1-.04-.15-.07-.13-.09-1.3-.93-2.43-.74-.52.08-.96.35-1.29.81-.59.8-.58,1.91,0,2.7.97,1.31,2.61.82,3.72,0,.05-.05.1-.06.23-.07.03.02.06.12.06.2v5.41h-11.61c-1.19,0-2.17-.96-2.17-2.17v-11.66h5.36c.15,0,.33.06.36.11,0,0,.02.1-.05.23-.1.13-1.01,1.22-1.01,2.1,0,.56.27,1.17.69,1.59.4.39.92.61,1.49.61h.05c.6.02,1.14-.2,1.55-.61.42-.41.69-1.03.69-1.59,0-.88-.91-1.98-.96-2.03-.11-.2-.1-.29-.09-.3.03-.06.21-.11.36-.11h5.36s0,5.4,0,5.4Z"/>
  <path class="cls-1" d="M22.33,29.53h-.79v-5.75c0-.14-.06-.33-.11-.36-.01,0-.11-.01-.3.09-.05.06-1.14.97-2.02.97-.56,0-1.17-.26-1.58-.69-.41-.42-.62-.95-.6-1.55.03-1.37,1.16-2.22,2.19-2.22.88,0,1.97.91,2.09,1.01.13.06.22.05.24.05.05-.03.1-.21.11-.36v-5.36h-11.78c-1.1,0-1.99.9-1.99,2v12.17h-.79v-12.17c0-1.53,1.25-2.78,2.78-2.78h12.57s0,6.14,0,6.14c0,.08-.01.75-.49,1.03-.21.12-.56.21-1.08-.08-.44-.36-1.2-.87-1.64-.87-.55,0-1.38.46-1.4,1.45,0,.39.12.72.38.99.27.27.67.45,1.02.45.44,0,1.2-.51,1.58-.83.59-.33.94-.25,1.15-.12.48.28.49.96.49,1.03v5.75Z"/>
  <path class="cls-1" d="M34.25,44.55h-12.31v-.79h12.31c1.02,0,1.86-.83,1.86-1.86v-11.99h-5.38s-.5,0-.78-.31c-.12-.13-.25-.36-.2-.72.03-.18.1-.36.22-.51.27-.37.71-1.17.6-1.84-.05-.31-.21-.56-.49-.77-.53-.38-1.26-.38-1.78,0-1.11.82.04,2.43.17,2.61.12.16.19.33.21.51.05.36-.08.59-.2.72-.28.31-.71.31-.8.31l-5.75-.02v-.79s5.76.02,5.76.02c.05,0,.18-.03.2-.05,0-.15-.04-.2-.06-.23-.82-1.11-1.32-2.75,0-3.72.79-.59,1.91-.59,2.71,0,.45.33.72.76.8,1.29.18,1.14-.65,2.3-.75,2.43-.04.05-.06.1-.07.15.03.12.13.13.19.14h6.18s0,12.77,0,12.77c0,1.46-1.19,2.64-2.64,2.64Z"/>
</svg>