<?xml version="1.0" encoding="UTF-8"?>
<svg id="Calque_1" data-name="Calque 1" xmlns="http://www.w3.org/2000/svg" viewBox="0 0 50 50">
  <defs>
    <style>
      .cls-1 {
        fill: #093d4e;
      }
    </style>
  </defs>
  <path class="cls-1" d="M29.34,18.36c-.09-.2-.19-.39-.29-.58-2.12-3.79-6.18-6.37-10.83-6.37-6.83,0-12.38,5.56-12.38,12.39,0,2.66.84,5.2,2.41,7.34l-.94,7.43,6.88-3.06c1.3.44,2.65.67,4.03.67,3.14,0,6.02-1.18,8.2-3.1.17-.15.32-.29.48-.44,2.29-2.25,3.71-5.38,3.71-8.84,0-1.96-.45-3.8-1.27-5.45ZM18.22,35.54c-1.35,0-2.67-.22-3.94-.68l-.12-.04-6.07,2.7.84-6.56-.08-.1c-1.54-2.05-2.36-4.49-2.36-7.05,0-6.48,5.27-11.74,11.74-11.74s11.74,5.26,11.74,11.74-5.26,11.73-11.74,11.73Z"/>
  <path class="cls-1" d="M19.25,28.33v-6.36h-4.35v2.13h1.41v4.23h-1.41v2.13h5.73v-2.13h-1.38ZM18.96,17.41c-.31-.32-.7-.48-1.15-.48s-.83.16-1.14.48c-.32.32-.48.7-.48,1.14s.17.82.48,1.14c.32.32.7.48,1.14.48s.83-.16,1.14-.48c.32-.31.48-.69.48-1.14s-.16-.82-.47-1.14Z"/>
  <path class="cls-1" d="M42.99,38.58l-5.65-2.52c-1.05.36-2.15.54-3.26.54-3.08,0-5.95-1.38-7.88-3.79l.51-.4c1.8,2.25,4.49,3.55,7.37,3.55,1.09,0,2.15-.18,3.17-.54l.12-.04,4.83,2.15-.66-5.22.08-.1c1.24-1.65,1.9-3.62,1.9-5.68,0-5.21-4.24-9.44-9.44-9.44-1.77,0-3.5.5-4.99,1.43l-.34-.55c1.6-1,3.44-1.53,5.34-1.53,5.56,0,10.09,4.53,10.09,10.09,0,2.16-.67,4.22-1.95,5.96l.77,6.1Z"/>
</svg>