<?xml version="1.0" encoding="UTF-8"?>
<svg id="Calque_1" data-name="Calque 1" xmlns="http://www.w3.org/2000/svg" viewBox="0 0 50 50">
  <defs>
    <style>
      .cls-1 {
        fill: #c9b292;
      }

      .cls-2 {
        fill: #093d4e;
      }
    </style>
  </defs>
  <rect class="cls-1" x="13.1" y="13.09" width="9.33" height="2.46" rx=".69" ry=".69" transform="translate(-4.92 16.76) rotate(-45)"/>
  <rect class="cls-1" x="23.04" y="23.02" width="9.33" height="2.46" rx=".69" ry=".69" transform="translate(-9.04 26.69) rotate(-45)"/>
  <path class="cls-2" d="M29.08,20.31l-7.43-7.42-.19-.2-5.25,5.25.19.2,2.61,2.6.39.4,1.42,1.41,3,3,.19.2,5.25-5.25-.19-.2ZM21.62,22.55l-2.21-2.21-2.41-2.41,4.46-4.45,7.03,7.03-4.46,4.45-2.41-2.41Z"/>
  <path class="cls-2" d="M19.41,20.34l-.39.39-12.48,12.48c-.19.19-.29.44-.29.72s.1.51.29.71l.79.79c.19.19.45.29.72.29s.52-.1.71-.29l12.48-12.48.4-.39-2.21-2.21ZM8.35,35.04c-.17.17-.46.17-.62,0l-.8-.79c-.08-.08-.13-.2-.13-.31,0-.12.05-.23.13-.32l12.48-12.47,1.42,1.41-12.48,12.48Z"/>
  <path class="cls-2" d="M42.55,36.29h-20.99c-.67,0-1.21.54-1.21,1.21v2.06h23.42v-2.06c0-.67-.54-1.21-1.21-1.21ZM43.2,39h-22.29v-1.5c0-.36.29-.65.65-.65h20.99c.36,0,.65.29.65.65v1.5Z"/>
  <path class="cls-2" d="M39.05,33.58h-13.99c-.67,0-1.21.55-1.21,1.21v2.07h16.42v-2.07c0-.66-.54-1.21-1.21-1.21ZM24.41,36.29v-1.51c0-.36.29-.65.65-.65h13.99c.36,0,.65.29.65.65v1.51h-15.29Z"/>
</svg>