<?xml version="1.0" encoding="UTF-8"?>
<svg id="Calque_1" data-name="Calque 1" xmlns="http://www.w3.org/2000/svg" viewBox="0 0 50 50">
  <defs>
    <style>
      .cls-1 {
        fill: #c9b292;
      }

      .cls-2 {
        fill: #093d4e;
      }
    </style>
  </defs>
  <g>
    <g>
      <path class="cls-2" d="M24.2,19.47l-.62-.35v24.26h.66v-23.98l-.05.06ZM24.2,19.47l-.62-.35v24.26h.66v-23.98l-.05.06ZM24.2,19.47l-.62-.35v24.26h.66v-23.98l-.05.06ZM24.2,19.47l-.62-.35v24.26h.66v-23.98l-.05.06ZM26.34,9.69v.33c0,.18.16.33.33.33h9.04c.18,0,.33-.15.33-.33v-.33h-9.7ZM24.2,19.47l-.62-.35v24.26h.66v-23.98l-.05.06ZM26.34,9.69v.33c0,.18.16.33.33.33h9.04c.18,0,.33-.15.33-.33v-.33h-9.7ZM24.2,19.47l-.62-.35v24.26h.66v-23.98l-.05.06ZM26.34,9.69v.33c0,.18.16.33.33.33h9.04c.18,0,.33-.15.33-.33v-.33h-9.7ZM24.2,19.47l-.62-.35v24.26h.66v-23.98l-.05.06ZM26.34,9.69v.33c0,.18.16.33.33.33h9.04c.18,0,.33-.15.33-.33v-.33h-9.7ZM24.2,19.47l-.62-.35v24.26h.66v-23.98l-.05.06ZM26.34,9.69v.33c0,.18.16.33.33.33h9.04c.18,0,.33-.15.33-.33v-.33h-9.7ZM24.2,19.47l-.62-.35v24.26h.66v-23.98l-.05.06ZM26.34,9.69v.33c0,.18.16.33.33.33h9.04c.18,0,.33-.15.33-.33v-.33h-9.7ZM24.2,19.47l-.62-.35v24.26h.66v-23.98l-.05.06ZM26.34,9.69v.33c0,.18.16.33.33.33h9.04c.18,0,.33-.15.33-.33v-.33h-9.7ZM24.2,19.47l-.62-.35v24.26h.66v-23.98l-.05.06ZM38.8,43.38V11.28c0-.87-.72-1.59-1.59-1.59h-1.18v-.16h-.66v.16h-8.37v-.16h-.67v.16h-1.16c-.88,0-1.6.72-1.6,1.59v.12l.67-.18c.03-.49.43-.86.93-.86h12.03c.51,0,.93.41.93.93v32.11h-3.86v-.16h-.66v.16h-4.86v-.16h-.66v.16h-3.86v-23.98l-.05.06-.62-.35v24.26h-.16v.33c0,.13.05.25.13.33h15.28c.08-.08.13-.2.13-.33v-.33h-.16ZM24.2,19.47l-.62-.35v24.1h.66v-23.82l-.05.06ZM24.2,19.47l-.62-.35v24.26h.66v-23.98l-.05.06ZM26.34,9.69v.33c0,.18.16.33.33.33h9.04c.18,0,.33-.15.33-.33v-.33h-9.7ZM24.2,19.47l-.62-.35v24.26h.66v-23.98l-.05.06ZM26.34,9.69v.33c0,.18.16.33.33.33h9.04c.18,0,.33-.15.33-.33v-.33h-9.7ZM24.2,19.47l-.62-.35v24.26h.66v-23.98l-.05.06ZM26.34,9.69v.33c0,.18.16.33.33.33h9.04c.18,0,.33-.15.33-.33v-.33h-9.7ZM24.2,19.47l-.62-.35v24.26h.66v-23.98l-.05.06ZM26.34,9.69v.33c0,.18.16.33.33.33h9.04c.18,0,.33-.15.33-.33v-.33h-9.7ZM24.2,19.47l-.62-.35v24.26h.66v-23.98l-.05.06ZM26.34,9.69v.33c0,.18.16.33.33.33h9.04c.18,0,.33-.15.33-.33v-.33h-9.7ZM24.2,19.47l-.62-.35v24.26h.66v-23.98l-.05.06ZM26.34,9.69v.33c0,.18.16.33.33.33h9.04c.18,0,.33-.15.33-.33v-.33h-9.7ZM24.2,19.47l-.62-.35v24.26h.66v-23.98l-.05.06ZM26.34,9.69v.33c0,.18.16.33.33.33h9.04c.18,0,.33-.15.33-.33v-.33h-9.7ZM24.2,19.47l-.62-.35v24.26h.66v-23.98l-.05.06ZM24.2,19.47l-.62-.35v24.26h.66v-23.98l-.05.06ZM24.2,19.47l-.62-.35v24.26h.66v-23.98l-.05.06ZM24.2,19.47l-.62-.35v24.26h.66v-23.98l-.05.06Z"/>
      <path class="cls-2" d="M28.1,43.08v.15h.66v-.15h-.66ZM28.1,43.08v.3h.66v-.3h-.66ZM33.62,43.08v.3h.66v-.3h-.66ZM28.1,43.08v.3h.66v-.3h-.66ZM33.62,43.08v.3h.66v-.3h-.66ZM28.1,43.08v.3h.66v-.3h-.66ZM33.62,43.08v.3h.66v-.3h-.66ZM28.1,43.08v.3h.66v-.3h-.66ZM33.62,43.08v.3h.66v-.3h-.66ZM35.38,9.37v.31h.66v-.31h-.66ZM26.34,9.37v.31h.67v-.31h-.67ZM23.58,43.71v-.33h-.31v.33c0,.13.03.23.1.33h.54c-.18,0-.33-.15-.33-.33ZM38.8,43.38v.33c0,.18-.15.33-.33.33h.55c.06-.1.09-.2.09-.33v-.33h-.31ZM28.1,43.08v.3h.66v-.3h-.66ZM33.62,43.08v.3h.66v-.3h-.66ZM28.1,43.08v.3h.66v-.3h-.66ZM33.62,43.08v.3h.66v-.3h-.66ZM28.1,43.08v.3h.66v-.3h-.66ZM33.62,43.08v.3h.66v-.3h-.66Z"/>
    </g>
    <path class="cls-2" d="M36.04,9.69v-2.13c0-.89-.72-1.6-1.6-1.6h-6.49c-.89,0-1.61.71-1.61,1.6v2.13h-.15v.33c0,.13.06.25.13.33h9.75c.08-.08.13-.2.13-.33v-.33h-.16ZM27.01,9.69v-2.13c0-.51.42-.94.94-.94h6.49c.51,0,.94.42.94.94v2.13h-8.37Z"/>
    <path class="cls-2" d="M40.61,43.71c0,.18-.15.33-.33.33H10.88c-.18,0-.33-.15-.33-.33s.15-.33.33-.33h1.73v-.15h.66v.15h10.3v-.15h.66v.15h3.86v-.15h.66v.15h4.87v-.15h.66v.15h3.86v-.15h.66v.15h1.48c.18,0,.33.15.33.33Z"/>
    <path class="cls-2" d="M24.24,43.38v-23.98l-.05.06-.62-.35v24.26h-10.31v-21.4c0-.3.15-.58.4-.76l-.53-.4c-.32.28-.51.71-.52,1.16v21.41h-.16v.33c0,.13.05.25.14.33h11.67c.08-.08.13-.2.13-.33v-.33h-.15Z"/>
    <path class="cls-2" d="M20.84,30.8c0,.18-.15.33-.33.33h-4.16c-.18,0-.33-.15-.33-.33s.15-.33.33-.33h4.16c.18,0,.33.15.33.33Z"/>
    <path class="cls-2" d="M20.84,34.84c0,.18-.15.33-.33.33h-4.16c-.18,0-.33-.15-.33-.33s.15-.33.33-.33h4.16c.18,0,.33.15.33.33Z"/>
    <path class="cls-2" d="M20.84,38.87c0,.18-.15.33-.33.33h-4.16c-.18,0-.33-.15-.33-.33s.15-.33.33-.33h4.16c.18,0,.33.15.33.33Z"/>
    <path class="cls-2" d="M28.76,34.61h0s4.86,0,4.86,0h0s-4.86,0-4.86,0ZM28.76,34.61h0s4.86,0,4.86,0h0s-4.86,0-4.86,0ZM28.76,34.61h0s4.86,0,4.86,0h0s-4.86,0-4.86,0ZM28.76,34.61h0s4.86,0,4.86,0h0s-4.86,0-4.86,0ZM28.76,34.61h0s4.86,0,4.86,0h0s-4.86,0-4.86,0ZM28.76,34.61h0s4.86,0,4.86,0h0s-4.86,0-4.86,0ZM28.76,34.61h0s4.86,0,4.86,0h0s-4.86,0-4.86,0ZM28.76,34.61h0s4.86,0,4.86,0h0s-4.86,0-4.86,0ZM28.76,34.61h0s4.86,0,4.86,0h0s-4.86,0-4.86,0ZM28.76,34.61h0s4.86,0,4.86,0h0s-4.86,0-4.86,0ZM28.76,34.61h0s4.86,0,4.86,0h0s-4.86,0-4.86,0ZM34.28,34.62h.16v-.34c0-.13-6.01-.33-6.01-.33h0s-.03,0-.05,0h-.31c-.07.08-.12.19-.12.32v.34h.16v8.76h-.16v.33c0,.13.05.25.13.33h6.24c.08-.08.13-.2.13-.33v-.33h-.16v-8.76ZM33.62,43.38h-4.86v-8.76h4.86v8.76ZM28.76,34.61h0s4.86,0,4.86,0h0s-4.86,0-4.86,0ZM28.76,34.61h0s4.86,0,4.86,0h0s-4.86,0-4.86,0ZM28.76,34.61h0s4.86,0,4.86,0h0s-4.86,0-4.86,0ZM28.76,34.61h0s4.86,0,4.86,0h0s-4.86,0-4.86,0ZM28.76,34.61h0s4.86,0,4.86,0h0s-4.86,0-4.86,0ZM28.76,34.61h0s4.86,0,4.86,0h0s-4.86,0-4.86,0ZM28.76,34.61h0s4.86,0,4.86,0h0s-4.86,0-4.86,0ZM28.76,34.61h0s4.86,0,4.86,0h0s-4.86,0-4.86,0ZM28.76,34.61h0s4.86,0,4.86,0h0s-4.86,0-4.86,0ZM28.76,34.61h0s4.86,0,4.86,0h0s-4.86,0-4.86,0ZM28.76,34.61h0s4.86,0,4.86,0h0s-4.86,0-4.86,0Z"/>
    <path class="cls-2" d="M35.68,34.28c0,.18-.15.33-.33.33h-1.07v.15h-.66v-.15h-4.87v.15h-.66v-.15h-1.07c-.18,0-.33-.15-.33-.33s.15-.33.33-.33h1.35s.03,0,.05,0h6.93c.18,0,.33.15.33.34Z"/>
    <path class="cls-2" d="M35.35,28.77c0,.18-.15.34-.33.34h-7.65c-.18,0-.33-.15-.33-.34s.15-.33.33-.33h7.65c.18,0,.33.15.33.33Z"/>
    <path class="cls-2" d="M35.35,24.24c0,.18-.15.33-.33.33h-7.65c-.18,0-.33-.15-.33-.33s.15-.33.33-.33h7.65c.18,0,.33.15.33.33Z"/>
    <path class="cls-2" d="M35.35,19.69c0,.18-.15.33-.33.33h-7.65c-.18,0-.33-.15-.33-.33s.15-.33.33-.33h7.65c.18,0,.33.15.33.33Z"/>
    <path class="cls-2" d="M31.54,6.61h-.71c-.08-.08.79-.08.71,0Z"/>
    <path class="cls-2" d="M34.07,6.61h-.71c-.08-.08.79-.08.71,0Z"/>
  </g>
  <g>
    <path class="cls-1" d="M21.5,21.88l1.13-.55-.28-1-1.26.17c-.07-.14-.17-.26-.27-.38-.09-.11-.18-.22-.29-.31l.39-1.19-.9-.51-.77,1.01c-.28-.07-.59-.1-.88-.09l-.56-1.13-.99.28.16,1.27c-.12.07-.24.16-.37.26-.11.09-.21.19-.31.3l-1.19-.4-.51.9,1,.78c-.06.28-.09.59-.08.88l-1.12.56.28.99,1.26-.17c.08.14.17.26.26.38.1.11.2.22.3.31l-.39,1.19.89.51.78-1.01c.29.07.59.1.88.09l.56,1.13,1-.28-.17-1.27c.13-.06.26-.16.37-.25.12-.09.23-.19.33-.3l1.18.4.51-.9-1.01-.78c.08-.29.11-.59.09-.89ZM19.53,23.29c-.7.57-1.73.47-2.3-.23-.57-.71-.47-1.74.23-2.31.7-.58,1.74-.47,2.31.23.57.71.47,1.74-.24,2.31Z"/>
    <path class="cls-1" d="M27.29,15.11l.83-.41-.21-.73-.91.12c-.06-.09-.13-.18-.19-.27-.07-.08-.14-.17-.23-.23l.29-.88-.65-.37-.57.73c-.21-.05-.42-.07-.64-.06l-.41-.83-.73.2.13.92c-.1.06-.18.12-.28.19-.08.07-.17.14-.24.22l-.86-.29-.38.66.74.56c-.06.22-.07.43-.07.65l-.82.4.2.73.93-.13c.06.09.12.18.18.28.07.08.15.16.22.23l-.28.87.65.37.57-.73c.21.06.43.07.64.06l.41.82.72-.19-.11-.93c.09-.06.18-.12.27-.19.08-.06.17-.14.23-.21l.87.28.37-.66-.73-.57c.06-.2.07-.42.06-.63ZM25.62,15.84c-.34.29-.86.24-1.15-.11-.28-.35-.23-.86.11-1.16.36-.28.87-.23,1.16.12s.24.86-.12,1.15Z"/>
    <path class="cls-1" d="M20.66,12.71l.06-1.4-1.7-.32c-.05-.19-.11-.39-.17-.59-.07-.18-.17-.37-.26-.54l1.02-1.36-.95-1.03-1.42.96c-.34-.21-.71-.39-1.1-.49l-.25-1.69-1.4-.06-.32,1.71c-.2.04-.39.09-.58.17-.19.06-.38.16-.54.26l-1.37-1.03-1.04.95.97,1.43c-.21.34-.38.71-.49,1.09l-1.68.25-.06,1.4,1.69.33c.05.19.11.39.18.58.07.18.16.37.25.54l-1.01,1.36.95,1.04,1.42-.97c.34.21.72.39,1.1.5l.24,1.68,1.41.06.32-1.7c.19-.05.39-.1.58-.18.19-.06.37-.15.54-.25l1.37,1.02,1.03-.95-.96-1.43c.21-.34.38-.71.48-1.09l1.69-.25ZM15.86,13.94c-1.15.44-2.43-.13-2.88-1.27-.44-1.15.13-2.43,1.28-2.88,1.14-.44,2.42.13,2.87,1.27.45,1.15-.12,2.43-1.27,2.88Z"/>
  </g>
</svg>