<?xml version="1.0" encoding="UTF-8"?>
<svg id="Calque_1" data-name="Calque 1" xmlns="http://www.w3.org/2000/svg" viewBox="0 0 50 50">
  <defs>
    <style>
      .cls-1 {
        fill: #093d4e;
      }
    </style>
  </defs>
  <path class="cls-1" d="M24.24,11.13c-.06.12-.08.24-.08.38s.03.26.08.38h-12.13s-.07,0-.11-.02c-.16-.05-.27-.18-.27-.36,0-.21.17-.38.38-.38h12.13Z"/>
  <path class="cls-1" d="M38.31,11.51c0,.18-.13.34-.31.37-.02,0-.04,0-.06,0h-12.13c.06-.12.08-.24.08-.38s-.03-.26-.08-.38h12.13c.21,0,.38.17.38.38Z"/>
  <path class="cls-1" d="M5.97,21.76v.38c0,3.76,2.88,6.83,6.42,6.83s6.43-3.07,6.43-6.83v-.38H5.97ZM12.39,28.2c-3,0-5.47-2.52-5.65-5.69h11.31c-.18,3.17-2.65,5.69-5.66,5.69Z"/>
  <path class="cls-1" d="M18.43,22.23c-.13,0-.25-.06-.32-.18l-5.72-9.35-5.72,9.35c-.11.18-.34.24-.52.13-.18-.11-.24-.34-.13-.52l6.37-10.4,6.37,10.4c.11.18.05.41-.13.52-.06.04-.13.06-.2.06Z"/>
  <g>
    <path class="cls-1" d="M41.99,23.03c0,2.57-1.96,4.66-4.37,4.66s-4.37-2.09-4.37-4.66h8.75Z"/>
    <path class="cls-1" d="M16.76,23.03c0,2.57-1.96,4.66-4.37,4.66s-4.37-2.09-4.37-4.66h8.75Z"/>
    <path class="cls-1" d="M31.19,21.76v.38c0,3.76,2.88,6.83,6.43,6.83s6.42-3.07,6.42-6.83v-.38h-12.85ZM37.62,28.2c-3.01,0-5.47-2.52-5.66-5.69h11.31c-.18,3.17-2.65,5.69-5.65,5.69Z"/>
  </g>
  <path class="cls-1" d="M31.57,22.23c-.07,0-.14-.02-.2-.06-.18-.11-.24-.34-.13-.52l6.37-10.4,6.37,10.4c.11.18.05.41-.13.52-.18.11-.41.05-.52-.13l-5.72-9.35-5.72,9.35c-.07.12-.2.18-.32.18Z"/>
  <path class="cls-1" d="M34.77,36.01H15.41c-1.15,0-2.08.94-2.08,2.09v2.02h23.53v-2.02c0-1.15-.93-2.09-2.09-2.09ZM36.1,39.35H14.08v-1.26c0-.73.6-1.33,1.33-1.33h19.36c.74,0,1.33.6,1.33,1.33v1.26Z"/>
  <path class="cls-1" d="M25.4,12.29v24.09c0,.21-.17.38-.38.38s-.38-.17-.38-.38V12.29c.12.06.24.08.38.08s.26-.03.38-.08Z"/>
  <g>
    <path class="cls-1" d="M26.2,11.13c-.16-.51-.62-.86-1.18-.86s-1.02.36-1.18.86c-.05.12-.06.25-.06.38s.02.26.06.38c.12.39.41.68.8.8.12.05.25.06.38.06s.26-.02.38-.06c.39-.12.68-.41.8-.8.05-.12.06-.25.06-.38s-.02-.26-.06-.38ZM25.4,12.29c-.12.06-.24.08-.38.08s-.26-.03-.38-.08c-.17-.08-.32-.23-.4-.4-.06-.12-.08-.24-.08-.38s.03-.26.08-.38c.14-.28.44-.49.78-.49s.64.2.78.49c.06.12.08.24.08.38s-.03.26-.08.38c-.08.17-.23.32-.4.4Z"/>
    <path class="cls-1" d="M26.59,11.13c-.17-.72-.8-1.25-1.56-1.25s-1.41.53-1.57,1.25c-.04.12-.06.25-.06.38s.02.26.06.38c.13.6.6,1.07,1.19,1.19.12.04.25.06.38.06s.26-.02.38-.06c.59-.13,1.06-.6,1.18-1.19.04-.12.06-.25.06-.38s-.02-.26-.06-.38ZM25.89,11.51c0,.14-.03.26-.08.38-.08.17-.23.32-.4.4-.12.06-.24.08-.38.08s-.26-.03-.38-.08c-.17-.08-.32-.23-.4-.4-.06-.12-.08-.24-.08-.38s.03-.26.08-.38c.14-.28.44-.49.78-.49s.64.2.78.49c.06.12.08.24.08.38Z"/>
  </g>
</svg>