<?xml version="1.0" encoding="UTF-8"?>
<svg id="Calque_1" data-name="Calque 1" xmlns="http://www.w3.org/2000/svg" viewBox="0 0 50 50">
  <defs>
    <style>
      .cls-1 {
        fill: #093d4e;
      }
    </style>
  </defs>
  <path class="cls-1" d="M29.86,6.53c-7.79,0-14.12,6.33-14.12,14.12,0,2.8.82,5.41,2.23,7.61.15.24.3.47.48.7.73,1,1.58,1.91,2.55,2.68.22.18.43.35.66.51,0,0,0,0,0,0,2.31,1.65,5.13,2.63,8.18,2.63,7.79,0,14.13-6.34,14.13-14.13s-6.34-14.12-14.13-14.12ZM29.86,33.95c-7.33,0-13.29-5.97-13.29-13.3s5.96-13.29,13.29-13.29,13.3,5.96,13.3,13.29-5.97,13.3-13.3,13.3Z"/>
  <path class="cls-1" d="M8.7,43.47c-.73,0-1.44-.3-1.94-.83-.5-.52-.76-1.2-.74-1.92s.31-1.38.83-1.88l11.36-10.82.57.6-11.36,10.82c-.36.34-.56.8-.58,1.3-.01.5.17.97.51,1.32.68.72,1.9.75,2.62.06l11.36-10.82.57.6-11.36,10.82c-.5.48-1.16.74-1.85.74Z"/>
  <circle class="cls-1" cx="29.86" cy="20.65" r="10.11"/>
</svg>