<?xml version="1.0" encoding="UTF-8"?>
<svg id="Calque_1" data-name="Calque 1" xmlns="http://www.w3.org/2000/svg" viewBox="0 0 50 50">
  <defs>
    <style>
      .cls-1 {
        fill: #c9b292;
      }

      .cls-2 {
        fill: #093d4e;
      }
    </style>
  </defs>
  <path class="cls-2" d="M43.15,40.97c-.21,0-.37-.17-.37-.37V7.21H12.35v33.38c0,.21-.17.37-.37.37s-.37-.17-.37-.37V6.47h31.92v34.13c0,.21-.17.37-.37.37Z"/>
  <path class="cls-2" d="M9.41,43.53c-.21,0-.37-.17-.37-.37s.17-.37.37-.37h31.17c1.21,0,2.2-.98,2.2-2.19,0-.21.17-.37.37-.37s.37.17.37.37c0,1.62-1.32,2.94-2.94,2.94H9.41Z"/>
  <path class="cls-2" d="M9.41,43.53c-1.62,0-2.94-1.32-2.94-2.94,0-.21.17-.37.37-.37s.37.17.37.37c0,1.21.98,2.19,2.19,2.19s2.19-.98,2.19-2.19c0-.21.17-.37.37-.37s.37.17.37.37c0,1.62-1.32,2.94-2.94,2.94Z"/>
  <path class="cls-2" d="M6.85,40.97c-.21,0-.37-.17-.37-.37v-10.74h5.51c.21,0,.37.17.37.37s-.17.37-.37.37h-4.76v10c0,.21-.17.37-.37.37Z"/>
  <g>
    <path class="cls-1" d="M19.01,11.21v2.3l.08,1.86c-.36-.73-.75-1.46-1.19-2.16-.43-.7-.89-1.36-1.38-1.99h-1v6.24h1.05v-2.39l-.07-2.14c.47.69.92,1.42,1.33,2.2.42.78.83,1.55,1.21,2.32h1.01v-6.24h-1.05Z"/>
    <path class="cls-1" d="M22.89,16.39v-1.58h2.14v-1.06h-2.14v-1.49h2.42v-1.06h-3.52v6.24h3.61v-1.06h-2.51Z"/>
    <path class="cls-1" d="M32.43,11.21l-.48,2.47-.39,2.27-1.24-4.74h-.99l-1.24,4.78-.35-2.31-.48-2.47h-1.19l1.41,6.24h1.13l1.2-4.64,1.2,4.64h1.13l1.4-6.24h-1.11Z"/>
    <path class="cls-1" d="M37.84,14.54c-.23-.29-.57-.51-1.03-.67l-.74-.24c-.27-.09-.45-.19-.57-.32-.11-.13-.17-.28-.17-.48,0-.27.07-.45.24-.55s.39-.15.66-.15c.22,0,.43.03.63.07.2.06.45.14.74.26l.34-.95c-.32-.14-.62-.24-.9-.3-.28-.06-.56-.1-.85-.1-.69,0-1.19.17-1.51.5-.33.34-.49.76-.49,1.28,0,.88.45,1.47,1.35,1.76l.75.25c.28.09.48.2.59.32.11.12.16.29.16.51,0,.52-.35.79-1.07.79-.23,0-.47-.03-.71-.09-.24-.06-.53-.16-.87-.3l-.34.95c.38.17.72.29,1.03.36.31.07.62.11.92.11.74,0,1.29-.17,1.64-.51.35-.34.52-.78.52-1.33,0-.48-.11-.86-.34-1.15Z"/>
  </g>
  <rect class="cls-1" x="15.79" y="19.64" width="22.4" height="5.61"/>
  <path class="cls-2" d="M25.47,29.58h-9.68c-.21,0-.37-.17-.37-.37s.17-.37.37-.37h9.68c.21,0,.37.17.37.37s-.17.37-.37.37Z"/>
  <path class="cls-2" d="M25.47,32.19h-9.68c-.21,0-.37-.17-.37-.37s.17-.37.37-.37h9.68c.21,0,.37.17.37.37s-.17.37-.37.37Z"/>
  <path class="cls-2" d="M25.47,34.93h-9.68c-.21,0-.37-.17-.37-.37s.17-.37.37-.37h9.68c.21,0,.37.17.37.37s-.17.37-.37.37Z"/>
  <path class="cls-2" d="M25.47,37.95h-9.68c-.21,0-.37-.17-.37-.37s.17-.37.37-.37h9.68c.21,0,.37.17.37.37s-.17.37-.37.37Z"/>
  <path class="cls-2" d="M38.19,29.58h-9.68c-.21,0-.37-.17-.37-.37s.17-.37.37-.37h9.68c.21,0,.37.17.37.37s-.17.37-.37.37Z"/>
  <path class="cls-2" d="M38.19,32.19h-9.68c-.21,0-.37-.17-.37-.37s.17-.37.37-.37h9.68c.21,0,.37.17.37.37s-.17.37-.37.37Z"/>
  <path class="cls-2" d="M38.19,34.93h-9.68c-.21,0-.37-.17-.37-.37s.17-.37.37-.37h9.68c.21,0,.37.17.37.37s-.17.37-.37.37Z"/>
  <path class="cls-2" d="M38.19,37.95h-9.68c-.21,0-.37-.17-.37-.37s.17-.37.37-.37h9.68c.21,0,.37.17.37.37s-.17.37-.37.37Z"/>
</svg>