<?xml version="1.0" encoding="UTF-8"?>
<svg id="Calque_1" data-name="Calque 1" xmlns="http://www.w3.org/2000/svg" viewBox="0 0 50 50">
  <defs>
    <style>
      .cls-1 {
        fill: #093d4e;
      }
    </style>
  </defs>
  <path class="cls-1" d="M25,6.41C14.75,6.41,6.41,14.75,6.41,25s8.34,18.59,18.59,18.59,18.59-8.34,18.59-18.59S35.25,6.41,25,6.41ZM38.79,36.16c-.18.23-.38.45-.57.67h0c-2.37,2.65-5.5,4.57-9.07,5.43h0c-.37.09-.74.17-1.12.23h0c-.85.15-1.71.23-2.59.25-.14,0-.28,0-.41,0s-.28,0-.42,0h0c-.97-.02-1.91-.12-2.83-.29-.39-.07-.76-.16-1.14-.25h0c-3.44-.89-6.49-2.78-8.8-5.36-.19-.22-.39-.44-.58-.67-2.39-2.95-3.86-6.67-3.95-10.74,0-.14,0-.28,0-.42s0-.28,0-.42c.09-4.07,1.56-7.8,3.96-10.75.18-.23.37-.44.57-.66h0c2.21-2.48,5.08-4.33,8.36-5.25h.02c.38-.12.75-.21,1.15-.29h0c1.05-.23,2.13-.36,3.24-.38h0c.14,0,.28,0,.42,0s.28,0,.41,0c1.04.02,2.05.13,3.03.32.39.08.76.17,1.14.28,3.38.9,6.36,2.77,8.64,5.31h0c.19.23.38.45.56.67,2.39,2.95,3.86,6.68,3.95,10.75,0,.14,0,.28,0,.42s0,.28,0,.42c-.09,4.07-1.56,7.79-3.95,10.74Z"/>
  <rect class="cls-1" x="6.83" y="24.58" width="36.34" height=".84"/>
  <rect class="cls-1" x="24.57" y="6.83" width=".84" height="36.34"/>
  <path class="cls-1" d="M21.13,43.06c-1.17-1.83-2.82-4.78-4.01-8.51l-.02-.08c-1-3.14-1.53-6.32-1.59-9.46-.05-3.27.41-6.5,1.36-9.61.86-2.85,2.14-5.66,3.81-8.35l.72.44c-1.63,2.63-2.88,5.37-3.72,8.16-.93,3.02-1.38,6.17-1.33,9.35.05,3.08.58,6.2,1.57,9.28l.02.08c1.16,3.61,2.76,6.47,3.89,8.25l-.71.45Z"/>
  <path class="cls-1" d="M28.63,43.09l-.71-.46c1.15-1.78,2.78-4.69,3.97-8.44.97-3.05,1.48-6.15,1.54-9.19.05-3.13-.39-6.24-1.3-9.25-.82-2.79-2.09-5.59-3.78-8.32l.72-.44c1.73,2.8,3.03,5.66,3.87,8.52.93,3.09,1.38,6.28,1.33,9.5-.05,3.13-.59,6.3-1.58,9.44-1.22,3.84-2.89,6.82-4.07,8.65Z"/>
  <path class="cls-1" d="M24.99,16.96c-2.62-.01-5.25-.36-7.82-1.03-2.1-.53-4.14-1.26-6.26-2.23l.17-.37v-.44s.18.04.18.04c2.06.95,4.06,1.67,6.11,2.18,2.5.65,5.06.99,7.61,1,2.53,0,5.04-.3,7.44-.9,2.11-.52,4.23-1.29,6.3-2.28l.36.76c-2.12,1.02-4.29,1.8-6.46,2.34-2.47.61-5.04.92-7.65.92Z"/>
  <path class="cls-1" d="M38.72,37.07c-2.15-1.04-4.34-1.83-6.52-2.34-2.34-.57-4.77-.86-7.2-.84-2.35.01-4.73.3-7.06.85l-.32.09c-2.15.52-4.28,1.27-6.35,2.23l-.35-.77c2.01-.93,4.09-1.67,6.18-2.2h0s.32-.09.32-.09c2.5-.62,5.04-.94,7.57-.95,2.51-.02,5,.27,7.41.86,2.24.52,4.49,1.33,6.69,2.4l-.37.76Z"/>
</svg>