<?xml version="1.0" encoding="UTF-8"?>
<svg id="Calque_1" data-name="Calque 1" xmlns="http://www.w3.org/2000/svg" viewBox="0 0 50 50">
  <defs>
    <style>
      .cls-1 {
        fill: #093d4e;
      }
    </style>
  </defs>
  <path class="cls-1" d="M43.7,17v5.82c0,.61-.39,1.14-.96,1.31l-.21.06-.68.2-14.03,4.28-.1-.32-.1-.32.1-.03,14.83-4.53c.28-.08.49-.35.49-.66v-5.82c0-.38-.31-.69-.69-.69H7.66c-.38,0-.68.31-.68.69v5.82c0,.31.19.57.49.66l15.1,4.61.1.03-.1.33-.1.32-14.31-4.37-.68-.2-.21-.06c-.58-.18-.96-.7-.96-1.31v-5.82c0-.76.61-1.38,1.36-1.38h34.69c.75,0,1.36.62,1.36,1.38Z"/>
  <rect class="cls-1" x="22.57" y="25.21" width="5.15" height="5.19" rx=".5" ry=".5"/>
  <path class="cls-1" d="M32.07,11.85v3.41h-2.5v-2.67c0-.64-.51-1.16-1.14-1.16h-6.72c-.62,0-1.14.52-1.14,1.16v2.67h-2.5v-3.41c0-1.62,1.3-2.93,2.91-2.93h8.17c1.61,0,2.91,1.31,2.91,2.93Z"/>
  <path class="cls-1" d="M41.36,41.08H8.64c-.64,0-1.17-.53-1.17-1.18v-15.98h.68v15.98c0,.27.22.49.49.49h32.72c.27,0,.49-.22.49-.49v-15.98h.68v15.98c0,.65-.52,1.18-1.17,1.18Z"/>
</svg>