<?xml version="1.0" encoding="UTF-8"?>
<svg id="Calque_1" data-name="Calque 1" xmlns="http://www.w3.org/2000/svg" viewBox="0 0 50 50">
  <defs>
    <style>
      .cls-1 {
        fill: #c9b292;
      }

      .cls-2 {
        fill: #093d4e;
      }
    </style>
  </defs>
  <path class="cls-2" d="M13.25,30.46h-4.74c-.6,0-1.07.48-1.07,1.07v9.21c0,.6.48,1.08,1.07,1.08h4.74c.59,0,1.07-.49,1.07-1.08v-9.21c0-.6-.49-1.07-1.07-1.07ZM13.65,40.75c0,.22-.18.39-.4.39h-4.74c-.22,0-.39-.17-.39-.39v-9.21c0-.22.17-.39.39-.39h4.74c.21,0,.4.17.4.39v9.21Z"/>
  <path class="cls-2" d="M31.73,36.26h-7.53c-.19,0-.34-.15-.34-.34s.15-.34.34-.34h7.53c.41,0,.79-.17,1.02-.47l.05-.07c.24-.35.23-.71.22-.85,0-.24-.06-.57-.27-.91-.27-.42-.74-.66-1.25-.66h-4.97c-.31,0-.61-.1-.85-.28l-1.47-1.1c-1.33-1-3.15-1.27-4.72-.72l-5.39,1.91c-.18.06-.37-.03-.44-.21-.06-.18.03-.37.21-.44l5.39-1.91c1.78-.63,3.85-.31,5.35.82l1.47,1.1c.13.09.28.15.44.15h4.97c.74,0,1.42.36,1.81.96.31.48.38.95.39,1.25.02.25,0,.76-.34,1.27-.03.04-.06.08-.09.12-.36.46-.93.72-1.55.72Z"/>
  <path class="cls-2" d="M28.08,42.18c-.37,0-.75-.03-1.12-.1l-13.03-2.37c-.19-.03-.31-.21-.28-.4.03-.19.2-.31.4-.28l13.03,2.37c.76.13,1.52.11,2.27-.05.69-.16,1.34-.43,1.93-.83l10.09-8.12c.27-.22.45-.51.5-.82.02-.1.03-.21.02-.32,0-.12-.02-.23-.04-.33-.13-.61-.63-1.07-1.25-1.15h-.12c-.38-.04-.77.08-1.11.32-1.01.69-1.98,1.35-2.94,2.02-.96.66-1.91,1.32-2.9,1.99-.16.1-.37.07-.48-.09-.11-.16-.07-.37.09-.47.99-.68,1.95-1.33,2.9-1.99.97-.67,1.94-1.34,2.95-2.02.47-.32,1-.48,1.54-.44h.14c.93.13,1.66.81,1.85,1.7.03.14.05.3.05.46,0,.16,0,.31-.03.44-.08.48-.34.92-.74,1.24l-10.11,8.14c-.68.46-1.41.77-2.18.95-.47.11-.94.16-1.42.16Z"/>
  <path class="cls-1" d="M33.47,9.66c-1.33-.59-2.5-1.22-3.5-1.84-1,.62-2.17,1.25-3.5,1.84-1.62.72-3.12,1.22-4.44,1.57v4.59c0,.81.08,2.07.6,3.5.52,1.43,1.26,2.45,1.78,3.07.59.73,1.37,1.55,2.36,2.37.74.61,1.8,1.38,3.2,2.09,1.4-.72,2.46-1.49,3.2-2.09.99-.82,1.77-1.64,2.36-2.37.52-.62,1.26-1.64,1.78-3.07.51-1.43.61-2.69.6-3.5v-4.59c-1.31-.35-2.82-.85-4.44-1.57ZM34.62,14.55l-5.2,5.2c-.12.11-.27.17-.43.17-.16,0-.31-.06-.42-.17l-2.31-2.31c-.14-.13-.14-.35,0-.48.13-.14.35-.14.48,0l2.25,2.25,5.14-5.14c.14-.13.35-.13.49,0,.13.14.13.35,0,.49Z"/>
</svg>