<?xml version="1.0" encoding="UTF-8"?>
<svg id="Calque_1" data-name="Calque 1" xmlns="http://www.w3.org/2000/svg" viewBox="0 0 50 50">
  <defs>
    <style>
      .cls-1 {
        fill: #093d4e;
      }
    </style>
  </defs>
  <path class="cls-1" d="M39.48,21.77c-.28.03-.55.04-.83.04-3.05,0-5.89-1.54-7.56-4.09v13.92c0,5.68-4.61,10.29-10.29,10.29s-10.29-4.61-10.29-10.29,4.61-10.29,10.29-10.29h0c.21,0,.42.02.64.03v5.07c-.21-.03-.42-.06-.64-.06-2.9,0-5.25,2.35-5.25,5.25s2.35,5.25,5.25,5.25,5.46-2.29,5.46-5.19l.05-23.64h4.85c.46,4.35,3.96,7.75,8.33,8.07v5.63h0Z"/>
</svg>