<?xml version="1.0" encoding="UTF-8"?>
<svg id="Calque_1" data-name="Calque 1" xmlns="http://www.w3.org/2000/svg" viewBox="0 0 50 50">
  <defs>
    <style>
      .cls-1 {
        fill: #093d4e;
      }
    </style>
  </defs>
  <path class="cls-1" d="M33.96,14.11c-1.1,0-1.99.89-1.99,1.98s.89,1.99,1.99,1.99,1.99-.89,1.99-1.99-.89-1.98-1.99-1.98Z"/>
  <path class="cls-1" d="M25.14,16.66c-4.6,0-8.33,3.75-8.33,8.34s3.74,8.33,8.33,8.33,8.34-3.74,8.34-8.33-3.75-8.34-8.34-8.34ZM25.14,30.34c-2.94,0-5.34-2.39-5.34-5.34s2.39-5.34,5.34-5.34,5.34,2.39,5.34,5.34-2.39,5.34-5.34,5.34Z"/>
  <path class="cls-1" d="M31.76,8.07h-13.52c-5.61,0-10.17,4.56-10.17,10.17v13.52c0,5.61,4.57,10.17,10.17,10.17h13.52c5.61,0,10.17-4.56,10.17-10.17v-13.52c0-5.61-4.56-10.17-10.17-10.17ZM38.74,31.76c0,3.85-3.13,6.98-6.98,6.98h-13.52c-3.85,0-6.98-3.13-6.98-6.98v-13.52c0-3.86,3.13-6.99,6.98-6.99h13.52c3.85,0,6.98,3.13,6.98,6.99v13.52Z"/>
</svg>