<?xml version="1.0" encoding="UTF-8"?>
<svg id="Calque_1" data-name="Calque 1" xmlns="http://www.w3.org/2000/svg" viewBox="0 0 50 50">
  <defs>
    <style>
      .cls-1 {
        fill: #c9b292;
      }

      .cls-2 {
        fill: #093d4e;
      }
    </style>
  </defs>
  <path class="cls-2" d="M30.54,40.91H10.77c-1.22,0-2.2-1.12-2.2-2.5V11.59c0-1.38.99-2.5,2.2-2.5h19.77c1.22,0,2.2,1.12,2.2,2.5v9.13c0,.17-.14.31-.31.31s-.31-.14-.31-.31v-9.13c0-1.04-.71-1.88-1.58-1.88H10.77c-.87,0-1.58.84-1.58,1.88v26.82c0,1.04.71,1.88,1.58,1.88h19.77c.86,0,1.57-.83,1.58-1.86v-7.29c0-.17.14-.31.31-.31s.31.14.31.31v7.29c-.02,1.37-1,2.48-2.2,2.48Z"/>
  <g>
    <path class="cls-2" d="M28.23,15.01h-15.09c-.17,0-.31-.14-.31-.31s.14-.31.31-.31h15.09c.17,0,.31.14.31.31s-.14.31-.31.31Z"/>
    <path class="cls-2" d="M28.23,18.65h-15.09c-.17,0-.31-.14-.31-.31s.14-.31.31-.31h15.09c.17,0,.31.14.31.31s-.14.31-.31.31Z"/>
    <path class="cls-2" d="M28.23,23.81h-15.09c-.17,0-.31-.14-.31-.31s.14-.31.31-.31h15.09c.17,0,.31.14.31.31s-.14.31-.31.31Z"/>
    <path class="cls-2" d="M24.39,27.32h-11.25c-.17,0-.31-.14-.31-.31s.14-.31.31-.31h11.25c.17,0,.31.14.31.31s-.14.31-.31.31Z"/>
    <path class="cls-2" d="M22.89,32.47h-9.81c-.17,0-.31-.14-.31-.31s.14-.31.31-.31h9.81c.17,0,.31.14.31.31s-.14.31-.31.31Z"/>
  </g>
  <g>
    <g>
      <rect class="cls-1" x="25.72" y="23.63" width="14.53" height="3.28" transform="translate(-7.32 35.36) rotate(-51.51)"/>
      <path class="cls-1" d="M25.39,35.11c-.16.11-.35-.04-.28-.22l1.76-4.49,2.49,1.98-3.97,2.73Z"/>
      <path class="cls-1" d="M36.63,25.66c-.1.13-.28.16-.4.06-.12-.09-.13-.27-.03-.4l4.53-5.7c.04-.06.04-.13-.01-.18l-.62-.49-.92,1.16-2.56-2.04,2.04-2.56c.1-.12.27-.15.38-.06l2.15,1.71c.11.09.13.26.03.39l-.74.94.83.66c.17.14.19.4.04.59l-4.71,5.92Z"/>
    </g>
    <path class="cls-1" d="M19.51,35.95c.05.2.14.52.21.57.04-.01.18-.17.26-.26.23-.26.55-.63,1.06-.65.34-.01.57.14.75.26.14.09.24.16.4.18.48.05,1.01-.49,1.36-.94l.46.36c-.66.85-1.28,1.23-1.89,1.17-.3-.03-.51-.17-.67-.28-.16-.11-.25-.16-.4-.16-.26.01-.45.22-.65.45-.18.2-.37.42-.63.45-.06,0-.11,0-.18,0-.43-.08-.56-.54-.68-1-.09-.35-.2-.74-.41-.84-.14-.06-.58-.1-1.69.92l-.4-.43c1.04-.96,1.78-1.28,2.33-1.02.46.22.61.78.73,1.23Z"/>
  </g>
</svg>