<?xml version="1.0" encoding="UTF-8"?>
<svg id="Calque_1" data-name="Calque 1" xmlns="http://www.w3.org/2000/svg" viewBox="0 0 50 50">
  <defs>
    <style>
      .cls-1 {
        fill: #093d4e;
      }
    </style>
  </defs>
  <path class="cls-1" d="M39.21,13.69c-3.58-3.54-9.45-3.46-13.08.17l-1.13,1.13-1.26-1.26c-1.74-1.74-4.04-2.68-6.49-2.68s-4.77.96-6.49,2.68c-3.58,3.58-3.58,9.4,0,12.99l10.85,10.85c.91.9,2.11,1.41,3.4,1.41s2.48-.51,3.39-1.41l10.85-10.85c1.74-1.74,2.69-4.04,2.69-6.49s-.97-4.79-2.72-6.53ZM36.86,24.32l-10.85,10.85c-.55.55-1.49.55-2.03,0l-10.86-10.84c-2.27-2.27-2.27-5.96,0-8.23,1.09-1.09,2.56-1.7,4.11-1.7s3.01.61,4.11,1.71l3.65,3.63,3.5-3.5c2.33-2.33,6.07-2.39,8.33-.16,1.12,1.11,1.73,2.57,1.73,4.14s-.6,3.01-1.7,4.11Z"/>
</svg>