<?xml version="1.0" encoding="UTF-8"?>
<svg id="Calque_1" data-name="Calque 1" xmlns="http://www.w3.org/2000/svg" viewBox="0 0 50 50">
  <defs>
    <style>
      .cls-1, .cls-2 {
        fill: #093d4e;
      }

      .cls-2 {
        fill-rule: evenodd;
      }
    </style>
  </defs>
  <path class="cls-1" d="M25.16,8.07c-9.22,0-16.72,7.5-16.72,16.72,0,2.82.72,5.59,2.1,8.08l-2.43,9.06,9.11-2.44c2.45,1.33,5.18,2.03,7.95,2.03,9.23,0,16.73-7.51,16.73-16.72s-7.51-16.72-16.73-16.72ZM25.16,38.35c-2.42,0-4.81-.66-6.92-1.91l-.57-.35-5.09,1.37,1.35-5.06-.35-.58c-1.3-2.13-1.99-4.56-1.99-7.03,0-7.48,6.08-13.57,13.56-13.57s13.57,6.08,13.57,13.57-6.08,13.56-13.57,13.56Z"/>
  <path class="cls-2" d="M31.39,27.12c-.69-.41-1.58-.87-2.4-.54-.62.25-1.02,1.23-1.42,1.73-.21.26-.45.3-.77.17-2.34-.93-4.13-2.49-5.41-4.64-.22-.33-.18-.6.08-.91.39-.46.88-.98.98-1.6.11-.62-.18-1.34-.44-1.89-.33-.7-.69-1.71-1.4-2.1-.65-.37-1.5-.16-2.08.31-1,.81-1.48,2.08-1.46,3.34,0,.36.05.71.13,1.06.2.83.58,1.61,1.02,2.34.33.56.68,1.1,1.06,1.61,1.25,1.7,2.8,3.17,4.6,4.27.9.55,1.87,1.03,2.87,1.36,1.12.37,2.13.76,3.34.53,1.27-.24,2.53-1.03,3.03-2.25.15-.36.22-.77.14-1.15-.17-.79-1.25-1.26-1.89-1.65Z"/>
</svg>