<?xml version="1.0" encoding="UTF-8"?>
<svg id="Calque_1" data-name="Calque 1" xmlns="http://www.w3.org/2000/svg" viewBox="0 0 50 50">
  <defs>
    <style>
      .cls-1 {
        fill: #093d4e;
      }
    </style>
  </defs>
  <path class="cls-1" d="M41.12,20.94c-.9-1.34-2.4-2.15-4.02-2.15h-3.14l.6-1.08c.84-1.51.82-3.3-.06-4.8-.88-1.49-2.43-2.38-4.15-2.38-1.23,0-2.4.47-3.31,1.32l-6.31,6.04c-.63-.59-1.48-.96-2.4-.96h-6.69c-1.97,0-3.57,1.6-3.57,3.57v15.41c0,1.97,1.6,3.57,3.57,3.57h6.69c1.15,0,2.15-.55,2.81-1.4h11.94c1.96,0,3.7-1.17,4.46-2.97l4.01-9.62c.63-1.49.46-3.19-.43-4.54ZM18.8,35.9c0,.26-.21.47-.47.47h-6.69c-.26,0-.47-.21-.47-.47v-15.41c0-.26.21-.47.47-.47h6.69c.26,0,.47.21.47.47v15.41ZM38.7,24.28l-4.01,9.63c-.27.64-.9,1.06-1.6,1.06h-11.2v-13.91l7.28-6.96c.32-.3.74-.47,1.18-.47.88,0,1.33.59,1.49.85.14.26.45.93.02,1.71l-3.17,5.7h8.41c.59,0,1.11.27,1.44.76.32.49.38,1.08.15,1.62Z"/>
</svg>