<?xml version="1.0" encoding="UTF-8"?>
<svg id="Calque_1" data-name="Calque 1" xmlns="http://www.w3.org/2000/svg" viewBox="0 0 50 50">
  <defs>
    <style>
      .cls-1 {
        fill: #093d4e;
      }
    </style>
  </defs>
  <path class="cls-1" d="M33.17,8h-16.33c-4.52,0-8.21,3.68-8.21,8.21v20.7c0,2.29,1.48,4.26,3.68,4.89,2.17.62,4.44-.23,5.67-2.11l7.02-9.15,7.02,9.15c.96,1.47,2.56,2.31,4.24,2.31.47,0,.96-.06,1.43-.2,2.2-.63,3.68-2.6,3.68-4.89v-20.7c0-4.52-3.67-8.21-8.2-8.21ZM37.6,36.91c0,.92-.73,1.21-.95,1.27-.23.06-1,.21-1.49-.57l-7.59-9.89c-.62-.8-1.56-1.27-2.57-1.27s-1.95.47-2.57,1.27l-7.49,9.75-.1.14c-.49.78-1.26.63-1.49.57s-.95-.35-.95-1.27v-20.7c0-2.44,1.99-4.43,4.43-4.43h16.33c2.44,0,4.43,1.99,4.43,4.43v20.7Z"/>
</svg>