<?xml version="1.0" encoding="UTF-8"?>
<svg id="Calque_1" data-name="Calque 1" xmlns="http://www.w3.org/2000/svg" viewBox="0 0 50 50">
  <defs>
    <style>
      .cls-1 {
        fill: #093d4e;
      }
    </style>
  </defs>
  <path class="cls-1" d="M36.36,45.6H6.69c-1.77,0-3.21-1.44-3.21-3.21V7.62c0-1.77,1.44-3.21,3.21-3.21h29.67c1.77,0,3.21,1.44,3.21,3.21v16.83c0,.2-.17.37-.37.37s-.37-.17-.37-.37V7.62c0-1.36-1.11-2.47-2.47-2.47H6.69c-1.36,0-2.47,1.11-2.47,2.47v34.76c0,1.36,1.11,2.47,2.47,2.47h29.67c1.35,0,2.45-1.09,2.47-2.44,0-.2.13-.38.38-.37.21,0,.37.17.37.38-.02,1.75-1.46,3.17-3.21,3.17Z"/>
  <path class="cls-1" d="M33.44,12.01h-14.98c-.21,0-.37-.17-.37-.37s.17-.37.37-.37h14.98c.21,0,.37.17.37.37s-.17.37-.37.37Z"/>
  <path class="cls-1" d="M33.44,16.74h-14.98c-.21,0-.37-.17-.37-.37s.17-.37.37-.37h14.98c.21,0,.37.17.37.37s-.17.37-.37.37Z"/>
  <path class="cls-1" d="M33.44,23.43h-14.98c-.21,0-.37-.17-.37-.37s.17-.37.37-.37h14.98c.21,0,.37.17.37.37s-.17.37-.37.37Z"/>
  <path class="cls-1" d="M29.63,27.98h-11.17c-.21,0-.37-.17-.37-.37s.17-.37.37-.37h11.17c.21,0,.37.17.37.37s-.17.37-.37.37Z"/>
  <path class="cls-1" d="M28.14,34.65h-9.74c-.21,0-.37-.17-.37-.37s.17-.37.37-.37h9.74c.21,0,.37.17.37.37s-.17.37-.37.37Z"/>
  <path class="cls-1" d="M30.2,39.2h-11.81c-.21,0-.37-.17-.37-.37s.17-.37.37-.37h11.81c.21,0,.37.17.37.37s-.17.37-.37.37Z"/>
  <path class="cls-1" d="M39.52,26.72c-3.87,0-7.01,3.14-7.01,7.02s3.14,7.01,7.01,7.01,7.01-3.14,7.01-7.01-3.13-7.02-7.01-7.02ZM42.99,31.85l-4.2,4.2c-.12.13-.28.19-.45.19-.17,0-.34-.06-.46-.18l-1.84-1.85c-.15-.14-.15-.38,0-.52.15-.15.38-.15.52,0l1.77,1.76,4.12-4.12c.15-.15.38-.15.52,0,.15.15.15.38,0,.52Z"/>
  <path class="cls-1" d="M12.22,16.62v-6.31h-.74c-.03.38-.16.63-.38.77-.23.14-.59.2-1.07.2v.64h1.27v4.69h-1.27v.72h3.42v-.72h-1.24Z"/>
  <path class="cls-1" d="M10.92,27.66c.21-.2.51-.48.86-.82.37-.35.7-.68.99-1,.17-.19.35-.39.51-.59.17-.2.3-.4.42-.61.11-.2.2-.41.27-.65.06-.23.09-.48.09-.75,0-.6-.18-1.07-.55-1.41-.38-.35-.88-.52-1.53-.52-.31,0-.64.05-.99.14-.34.09-.62.18-.81.28v1h.06c.07-.06.17-.12.29-.19.12-.08.25-.15.38-.19.16-.06.32-.12.5-.17.17-.04.34-.06.51-.06.17,0,.33.02.48.06.14.05.27.12.38.21.11.1.19.22.26.37.06.15.09.32.09.51,0,.38-.1.74-.29,1.09-.19.36-.56.83-1.09,1.41-.27.28-.53.57-.81.84-.28.28-.57.55-.88.85v.99h4.33v-.81h-3.44Z"/>
  <path class="cls-1" d="M14.16,36.44c-.09-.21-.21-.39-.36-.51-.14-.14-.29-.24-.47-.31-.17-.06-.32-.11-.47-.15v-.06c.35-.07.66-.26.91-.55.26-.29.39-.63.39-1.02,0-.28-.05-.53-.16-.74-.11-.21-.27-.39-.47-.55-.19-.13-.4-.23-.64-.29-.24-.06-.51-.1-.84-.1s-.64.05-1,.14c-.35.09-.62.19-.83.29v1h.06c.09-.06.19-.13.3-.19.11-.07.24-.14.39-.2.16-.06.32-.12.5-.16.17-.05.34-.06.51-.06s.32.02.46.05c.15.03.28.09.39.17.11.07.2.17.27.3.07.12.1.28.1.45,0,.39-.13.67-.39.87-.27.2-.61.3-1.03.3h-.31v.78h.39c.21,0,.4.02.59.06.18.04.34.1.47.19.13.09.24.22.31.39s.11.38.11.62-.04.47-.1.63c-.06.17-.17.32-.28.46-.13.14-.29.24-.49.29-.19.06-.39.09-.58.09-.33,0-.66-.06-.99-.19-.33-.14-.6-.28-.8-.41h-.06v.99c.24.12.52.22.87.3.34.08.69.13,1.05.13s.69-.06.98-.17c.28-.11.53-.28.73-.49.2-.2.35-.44.46-.7.11-.27.17-.56.17-.87s-.05-.57-.14-.78Z"/>
</svg>