<?xml version="1.0" encoding="UTF-8"?>
<svg id="Calque_1" data-name="Calque 1" xmlns="http://www.w3.org/2000/svg" viewBox="0 0 50 50">
  <defs>
    <style>
      .cls-1 {
        fill: #c9b292;
      }

      .cls-2 {
        fill: #093d4e;
      }
    </style>
  </defs>
  <path class="cls-2" d="M40.63,41.52h-3.74c-.21,0-.37-.17-.37-.37s.17-.37.37-.37h3.74c.45,0,.82-.37.82-.82V7.2c0-.45-.37-.82-.82-.82H9.37c-.45,0-.82.37-.82.82v32.75c0,.45.37.82.82.82h16.88c.21,0,.37.17.37.37s-.17.37-.37.37H9.37c-.86,0-1.57-.7-1.57-1.57V7.2c0-.86.7-1.57,1.57-1.57h31.26c.86,0,1.57.7,1.57,1.57v32.75c0,.86-.7,1.57-1.57,1.57Z"/>
  <circle class="cls-1" cx="31.84" cy="33.23" r="5.31"/>
  <polygon class="cls-1" points="28.72 37.53 28.72 44.37 31.84 41.58 34.61 44.36 34.61 37.76 28.72 37.53"/>
  <path class="cls-2" d="M36.46,12.14H14.05c-.21,0-.37-.17-.37-.37s.17-.37.37-.37h22.41c.21,0,.37.17.37.37s-.17.37-.37.37Z"/>
  <path class="cls-2" d="M36.46,16.78H14.05c-.21,0-.37-.17-.37-.37s.17-.37.37-.37h22.41c.21,0,.37.17.37.37s-.17.37-.37.37Z"/>
  <path class="cls-2" d="M36.46,21.06H14.05c-.21,0-.37-.17-.37-.37s.17-.37.37-.37h22.41c.21,0,.37.17.37.37s-.17.37-.37.37Z"/>
  <path class="cls-2" d="M28.44,25.54h-14.39c-.21,0-.37-.17-.37-.37s.17-.37.37-.37h14.39c.21,0,.37.17.37.37s-.17.37-.37.37Z"/>
</svg>