<?xml version="1.0" encoding="UTF-8"?>
<svg id="Calque_1" data-name="Calque 1" xmlns="http://www.w3.org/2000/svg" viewBox="0 0 50 50">
  <defs>
    <style>
      .cls-1 {
        fill: #c9b292;
      }

      .cls-2 {
        fill: #093d4e;
      }
    </style>
  </defs>
  <path class="cls-2" d="M33.47,21.18v19.42H12.76V12.58h12.9c.06-.2.14-.39.24-.57h-13.7v29.16h21.84v-20.16c-.18.07-.38.14-.57.18ZM33.47,14.49v6.11c.19-.06.39-.12.57-.19v-6.46l-.57.54ZM26.52,12.01c-.1.18-.19.37-.28.56h7.23v1.15l.57-.54v-1.17h-7.52Z"/>
  <path class="cls-1" d="M31.8,8.84c-2.29,0-4.27,1.29-5.28,3.17-.1.18-.19.37-.28.56-.28.7-.44,1.47-.44,2.27,0,3.31,2.69,6,6,6,.58,0,1.14-.08,1.67-.24.19-.06.39-.12.57-.19,2.2-.89,3.77-3.05,3.77-5.57,0-3.31-2.7-6-6.01-6ZM34.04,13.94l-.57.54-3.01,2.88-1.99-2.18.41-.38,1.61,1.75,2.99-2.84.57-.54.7-.66.39.4-1.08,1.03Z"/>
  <rect class="cls-2" x="15.91" y="30.78" width="14.34" height=".56"/>
  <rect class="cls-2" x="15.91" y="27.8" width="14.34" height=".56"/>
  <rect class="cls-2" x="15.91" y="33.79" width="14.34" height=".56"/>
  <rect class="cls-2" x="15.91" y="36.79" width="9.6" height=".56"/>
  <path class="cls-2" d="M19.67,15.76c-2.23,0-4.04,1.81-4.04,4.04s1.81,4.03,4.04,4.03,4.03-1.81,4.03-4.03-1.81-4.04-4.03-4.04ZM22.26,22.1c-.13.15-.27.28-.42.41-.6.48-1.35.76-2.17.76s-1.58-.28-2.18-.76c-.16-.13-.29-.27-.42-.41-.55-.62-.88-1.41-.88-2.3,0-1.92,1.56-3.48,3.48-3.48s3.47,1.56,3.47,3.48c0,.88-.33,1.68-.88,2.3Z"/>
  <path class="cls-2" d="M19.67,17.41c-.8,0-1.44.64-1.44,1.44s.64,1.44,1.44,1.44,1.44-.64,1.44-1.44-.65-1.44-1.44-1.44ZM19.67,19.73c-.49,0-.88-.4-.88-.88s.4-.88.88-.88.88.39.88.88-.4.88-.88.88Z"/>
  <path class="cls-2" d="M17.39,22.69l-.51-.23c.49-1.1,1.58-1.81,2.79-1.81s2.3.71,2.79,1.81l-.51.23c-.4-.9-1.3-1.47-2.27-1.47s-1.87.58-2.27,1.48Z"/>
</svg>