<?xml version="1.0" encoding="UTF-8"?>
<svg id="Calque_1" data-name="Calque 1" xmlns="http://www.w3.org/2000/svg" viewBox="0 0 50 50">
  <defs>
    <style>
      .cls-1 {
        fill: #093d4e;
      }
    </style>
  </defs>
  <path class="cls-1" d="M37.31,44.21H12.69c-1.35,0-2.45-1.1-2.45-2.45V12.22c0-1.35,1.1-2.45,2.45-2.45h6.51v.71h-6.51c-.96,0-1.74.78-1.74,1.74v29.54c0,.96.78,1.74,1.74,1.74h24.63c.96,0,1.74-.78,1.74-1.74V12.22c0-.96-.78-1.74-1.74-1.74h-6.16v-.71h6.16c1.35,0,2.45,1.1,2.45,2.45v29.54c0,1.35-1.1,2.45-2.45,2.45Z"/>
  <path class="cls-1" d="M31.33,36.84h-12.31c-.2,0-.36-.16-.36-.36s.16-.36.36-.36h12.31c.2,0,.36.16.36.36s-.16.36-.36.36Z"/>
  <path class="cls-1" d="M30.21,19.55h-10.07c-.52,0-.95.42-.95.95v9.54c0,.52.42.96.95.96h10.07c.52,0,.95-.43.95-.96v-9.54c0-.52-.42-.95-.95-.95ZM24.5,27.81c-.1.1-.24.15-.37.15-.14,0-.28-.05-.38-.15l-2.28-2.29.51-.51,2.15,2.16,4.5-4.51.51.51-4.64,4.64Z"/>
  <path class="cls-1" d="M30.35,8.5h-2.19c-.15-1.52-1.43-2.71-2.99-2.71s-2.84,1.19-2.99,2.71h-2.19c-.63,0-1.16.52-1.16,1.16v3.05c0,.64.52,1.16,1.16,1.16h10.35c.64,0,1.17-.51,1.17-1.16v-3.05c0-.63-.52-1.16-1.17-1.16ZM30.8,12.7c0,.25-.2.45-.45.45h-10.35c-.25,0-.45-.2-.45-.45v-3.05c0-.25.2-.45.45-.45h2.54l.35-.06v-.36c0-1.27,1.03-2.3,2.3-2.3s2.3,1.03,2.3,2.32l-.04.39h2.91c.25,0,.45.2.45.45v3.05Z"/>
</svg>